<?xml version="1.0" encoding="UTF-8"?>
<svg version="1.1" xmlns="http://www.w3.org/2000/svg" width="729" height="289">
<path d="M0 0 C240.57 0 481.14 0 729 0 C729 95.37 729 190.74 729 289 C488.43 289 247.86 289 0 289 C0 193.63 0 98.26 0 0 Z " fill="#091229" transform="translate(0,0)"/>
<path d="M0 0 C34.65 0 69.3 0 105 0 C105 41.25 105 82.5 105 125 C103.02 125 101.04 125 99 125 C99 126.98 99 128.96 99 131 C97.02 131 95.04 131 93 131 C93 132.98 93 134.96 93 137 C58.35 137 23.7 137 -12 137 C-12 95.75 -12 54.5 -12 12 C-10.02 12 -8.04 12 -6 12 C-6 10.02 -6 8.04 -6 6 C-4.02 6 -2.04 6 0 6 C0 4.02 0 2.04 0 0 Z " fill="#112955" transform="translate(105,46)"/>
<path d="M0 0 C5.01315364 3.81954563 7.66519965 8.94790211 9.9296875 14.75 C9.9296875 15.41 9.9296875 16.07 9.9296875 16.75 C7.36540235 16.88559675 4.80833534 16.98433188 2.2421875 17.0625 C1.52095703 17.10439453 0.79972656 17.14628906 0.05664062 17.18945312 C-4.18235148 17.28623377 -5.58960539 17.15317371 -8.9765625 14.3125 C-9.6675 13.466875 -10.3584375 12.62125 -11.0703125 11.75 C-14.68024364 9.13591193 -18.77178198 9.20088632 -23.0703125 9.75 C-27.7734218 11.78088811 -30.78820369 15.18578239 -33.0703125 19.75 C-33.1931902 21.68460941 -33.24586138 23.62402904 -33.2578125 25.5625 C-33.27908203 27.11904297 -33.27908203 27.11904297 -33.30078125 28.70703125 C-33.06603815 31.80643593 -32.27961449 33.91591376 -31.0703125 36.75 C-29.87543213 36.74476318 -28.68055176 36.73952637 -27.44946289 36.73413086 C-22.98218547 36.7159205 -18.51491127 36.70450978 -14.04760742 36.69506836 C-12.12051846 36.69006461 -10.19343325 36.68325955 -8.26635742 36.67456055 C-5.48355174 36.66232052 -2.70079661 36.65673196 0.08203125 36.65234375 C0.93240463 36.64718246 1.78277802 36.64202118 2.65892029 36.63670349 C3.88917686 36.63659019 3.88917686 36.63659019 5.14428711 36.63647461 C5.8526622 36.634254 6.56103729 36.63203339 7.2908783 36.62974548 C11.18437016 36.80717778 15.05599315 37.31958952 18.9296875 37.75 C18.9296875 23.89 18.9296875 10.03 18.9296875 -4.25 C22.9721875 -4.311875 27.0146875 -4.37375 31.1796875 -4.4375 C32.42782227 -4.46481201 33.67595703 -4.49212402 34.96191406 -4.52026367 C46.26582283 -4.60283228 56.49935086 -3.29250033 64.9296875 4.75 C71.70343795 12.07297346 73.162857 19.42841349 73.09765625 29.078125 C72.90008055 32.220957 72.17825063 34.86269776 70.9296875 37.75 C74.2296875 37.75 77.5296875 37.75 80.9296875 37.75 C80.9296875 23.89 80.9296875 10.03 80.9296875 -4.25 C85.8796875 -4.25 90.8296875 -4.25 95.9296875 -4.25 C95.9296875 9.61 95.9296875 23.47 95.9296875 37.75 C175.4596875 37.75 254.9896875 37.75 336.9296875 37.75 C336.9296875 39.07 336.9296875 40.39 336.9296875 41.75 C257.3996875 41.75 177.8696875 41.75 95.9296875 41.75 C95.9296875 43.07 95.9296875 44.39 95.9296875 45.75 C102.1996875 45.75 108.4696875 45.75 114.9296875 45.75 C114.9296875 49.38 114.9296875 53.01 114.9296875 56.75 C103.7096875 56.75 92.4896875 56.75 80.9296875 56.75 C80.9296875 51.8 80.9296875 46.85 80.9296875 41.75 C73.42803534 41.41099978 73.42803534 41.41099978 66.92578125 44.421875 C65.83306816 45.82265419 64.76298549 47.24134648 63.71484375 48.67578125 C59.86701787 53.14666865 53.656029 55.61935633 47.9296875 56.75 C45.68614813 56.83173345 43.44031858 56.85750277 41.1953125 56.84765625 C39.89980469 56.84443359 38.60429687 56.84121094 37.26953125 56.83789062 C35.90624933 56.82953598 34.54296808 56.82107104 33.1796875 56.8125 C31.80078285 56.80748168 30.42187646 56.80291935 29.04296875 56.79882812 C25.67185632 56.78704102 22.3007664 56.76910561 18.9296875 56.75 C18.9296875 51.8 18.9296875 46.85 18.9296875 41.75 C12.00179028 41.40717919 12.00179028 41.40717919 6.1796875 44.421875 C5.25109599 45.82531444 4.34519915 47.24399713 3.4609375 48.67578125 C0.15432057 53.15489756 -5.65747143 55.76759824 -11.0703125 56.75 C-21.52008289 57.679653 -30.3253281 57.33982237 -39.0703125 50.75 C-40.74316083 48.70457966 -42.1448606 46.61557731 -43.55859375 44.38671875 C-45.57442721 42.20420138 -47.02915308 42.06196124 -49.9453125 41.75 C-51.31983349 41.71370902 -52.69618081 41.70114198 -54.0703125 41.75 C-54.0703125 40.43 -54.0703125 39.11 -54.0703125 37.75 C-51.7603125 37.75 -49.4503125 37.75 -47.0703125 37.75 C-47.4003125 36.821875 -47.7303125 35.89375 -48.0703125 34.9375 C-50.35330737 26.80741035 -49.75547802 18.34367441 -46.0703125 10.75 C-41.76023807 3.23499844 -35.66030558 -1.38000282 -27.6953125 -4.625 C-17.60828759 -6.36414223 -8.87769464 -5.36011752 0 0 Z " fill="#1EB7AE" transform="translate(304.0703125,142.25)"/>
<path d="M0 0 C34.65 0 69.3 0 105 0 C105 41.25 105 82.5 105 125 C103.02 125 101.04 125 99 125 C99 126.98 99 128.96 99 131 C97.02 131 95.04 131 93 131 C93 132.98 93 134.96 93 137 C58.35 137 23.7 137 -12 137 C-12 95.75 -12 54.5 -12 12 C-10.02 12 -8.04 12 -6 12 C-6 10.02 -6 8.04 -6 6 C-4.02 6 -2.04 6 0 6 C0 4.02 0 2.04 0 0 Z M3 3 C3 42.27 3 81.54 3 122 C35.67 122 68.34 122 102 122 C102 82.73 102 43.46 102 3 C69.33 3 36.66 3 3 3 Z " fill="#4F9CA8" transform="translate(105,46)"/>
<path d="M0 0 C5.01315364 3.81954563 7.66519965 8.94790211 9.9296875 14.75 C9.9296875 15.41 9.9296875 16.07 9.9296875 16.75 C7.36540235 16.88559675 4.80833534 16.98433188 2.2421875 17.0625 C1.52095703 17.10439453 0.79972656 17.14628906 0.05664062 17.18945312 C-4.18235148 17.28623377 -5.58960539 17.15317371 -8.9765625 14.3125 C-9.6675 13.466875 -10.3584375 12.62125 -11.0703125 11.75 C-14.68024364 9.13591193 -18.77178198 9.20088632 -23.0703125 9.75 C-27.7734218 11.78088811 -30.78820369 15.18578239 -33.0703125 19.75 C-33.1931902 21.68460941 -33.24586138 23.62402904 -33.2578125 25.5625 C-33.27908203 27.11904297 -33.27908203 27.11904297 -33.30078125 28.70703125 C-33.06603815 31.80643593 -32.27961449 33.91591376 -31.0703125 36.75 C-29.87543213 36.74476318 -28.68055176 36.73952637 -27.44946289 36.73413086 C-22.98218547 36.7159205 -18.51491127 36.70450978 -14.04760742 36.69506836 C-12.12051846 36.69006461 -10.19343325 36.68325955 -8.26635742 36.67456055 C-5.48355174 36.66232052 -2.70079661 36.65673196 0.08203125 36.65234375 C0.93240463 36.64718246 1.78277802 36.64202118 2.65892029 36.63670349 C3.88917686 36.63659019 3.88917686 36.63659019 5.14428711 36.63647461 C5.8526622 36.634254 6.56103729 36.63203339 7.2908783 36.62974548 C11.18437016 36.80717778 15.05599315 37.31958952 18.9296875 37.75 C18.9296875 23.89 18.9296875 10.03 18.9296875 -4.25 C22.9721875 -4.311875 27.0146875 -4.37375 31.1796875 -4.4375 C32.42782227 -4.46481201 33.67595703 -4.49212402 34.96191406 -4.52026367 C48.22840415 -4.61716782 57.766697 -2.22449075 67.3046875 7.0625 C72.02821054 14.87448041 71.63003719 24.90293552 70.9296875 33.75 C70.2696875 35.07 69.6096875 36.39 68.9296875 37.75 C65.2996875 37.75 61.6696875 37.75 57.9296875 37.75 C57.98769531 36.26886719 58.04570312 34.78773438 58.10546875 33.26171875 C58.15236186 31.32034394 58.1978625 29.37893514 58.2421875 27.4375 C58.28408203 26.46103516 58.32597656 25.48457031 58.36914062 24.47851562 C58.41490341 21.81512146 58.40922057 19.37121579 57.9296875 16.75 C55.68879852 14.55787281 55.68879852 14.55787281 52.9296875 13.75 C52.2284375 13.21375 51.5271875 12.6775 50.8046875 12.125 C48.87231078 10.56086933 48.87231078 10.56086933 45.9296875 9.75 C45.9296875 9.09 45.9296875 8.43 45.9296875 7.75 C41.3096875 7.75 36.6896875 7.75 31.9296875 7.75 C31.9296875 17.65 31.9296875 27.55 31.9296875 37.75 C27.9696875 37.75 24.0096875 37.75 19.9296875 37.75 C20.4246875 46.165 20.4246875 46.165 20.9296875 54.75 C39.03318476 55.12731968 39.03318476 55.12731968 56.9296875 52.75 C53.50472208 56.17496542 49.18906925 56.66728053 44.47290039 56.97705078 C42.70547485 56.96134033 42.70547485 56.96134033 40.90234375 56.9453125 C38.97358398 56.93564453 38.97358398 56.93564453 37.00585938 56.92578125 C35.66796596 56.90907601 34.33007533 56.89214619 32.9921875 56.875 C31.62695967 56.86495322 30.2617247 56.85583036 28.89648438 56.84765625 C25.57414224 56.8241768 22.25189173 56.78830857 18.9296875 56.75 C18.9296875 51.8 18.9296875 46.85 18.9296875 41.75 C12.00179028 41.40717919 12.00179028 41.40717919 6.1796875 44.421875 C5.25109599 45.82531444 4.34519915 47.24399713 3.4609375 48.67578125 C0.15432057 53.15489756 -5.65747143 55.76759824 -11.0703125 56.75 C-21.52008289 57.679653 -30.3253281 57.33982237 -39.0703125 50.75 C-40.74316083 48.70457966 -42.1448606 46.61557731 -43.55859375 44.38671875 C-45.57442721 42.20420138 -47.02915308 42.06196124 -49.9453125 41.75 C-51.31983349 41.71370902 -52.69618081 41.70114198 -54.0703125 41.75 C-54.0703125 40.43 -54.0703125 39.11 -54.0703125 37.75 C-51.7603125 37.75 -49.4503125 37.75 -47.0703125 37.75 C-47.4003125 36.821875 -47.7303125 35.89375 -48.0703125 34.9375 C-50.35330737 26.80741035 -49.75547802 18.34367441 -46.0703125 10.75 C-41.76023807 3.23499844 -35.66030558 -1.38000282 -27.6953125 -4.625 C-17.60828759 -6.36414223 -8.87769464 -5.36011752 0 0 Z " fill="#29B7B1" transform="translate(304.0703125,142.25)"/>
<path d="M0 0 C36.83983645 0 36.83983645 0 47.12109375 9.83984375 C53.21783868 16.84919915 54.36625642 24.34275159 54.2734375 33.35546875 C53.67786164 41.29364409 50.48120476 47.47313545 45.0625 53.2421875 C32.07548084 64.31066974 16.70864475 61 0 61 C0 40.87 0 20.74 0 0 Z " fill="#FAFBFC" transform="translate(453,50)"/>
<path d="M0 0 C4.929375 -0.0825 9.85875 -0.165 14.9375 -0.25 C16.47398193 -0.28641602 18.01046387 -0.32283203 19.59350586 -0.36035156 C28.24250142 -0.43024244 35.30299955 0.04328767 42.15625 5.81640625 C42.5996875 6.39261719 43.043125 6.96882813 43.5 7.5625 C43.9640625 8.14128906 44.428125 8.72007813 44.90625 9.31640625 C47.66029694 13.55567135 47.42984665 18.14192178 47 23 C45.23015105 29.14241695 42.05085136 32.3731236 37 36 C36.01 36.495 36.01 36.495 35 37 C37.00823564 42.78233367 40.38566133 47.81974741 43.54296875 53.02539062 C43.98511719 53.76337891 44.42726563 54.50136719 44.8828125 55.26171875 C45.28902832 55.93162842 45.69524414 56.60153809 46.11376953 57.29174805 C47 59 47 59 47 61 C41.52462046 61.58525434 36.45894334 61.86108332 31 61 C27.70960951 58.23254657 26.56360186 54.93506469 25 51 C23.89503553 48.98886139 22.7702701 46.98846207 21.625 45 C19 40.26153846 19 40.26153846 19 38 C17.68 38 16.36 38 15 38 C15 45.59 15 53.18 15 61 C10.05 61 5.1 61 0 61 C0 40.87 0 20.74 0 0 Z " fill="#FBFCFC" transform="translate(255,50)"/>
<path d="M0 0 C2.64 0 5.28 0 8 0 C8 95.37 8 190.74 8 289 C5.36 289 2.72 289 0 289 C0 193.63 0 98.26 0 0 Z " fill="#07BFB1" transform="translate(0,0)"/>
<path d="M0 0 C5.94 0 11.88 0 18 0 C20.51161728 7.07899312 23.02005504 14.15910202 25.52563477 21.24023438 C26.37731408 23.64581237 27.22984058 26.05109061 28.08325195 28.45605469 C29.31427729 31.92563457 30.54218757 35.3963038 31.76953125 38.8671875 C32.14777542 39.93113739 32.52601959 40.99508728 32.91572571 42.09127808 C35.12477581 48.34955843 37.14381502 54.62786845 39 61 C33.72 61 28.44 61 23 61 C22.01 57.7 21.02 54.4 20 51 C12.41 50.67 4.82 50.34 -3 50 C-3.99 53.63 -4.98 57.26 -6 61 C-10.95 61 -15.9 61 -21 61 C-20.31963626 56.91781756 -19.71663294 53.80386289 -18.37353516 50.02368164 C-18.04294098 49.08573257 -17.7123468 48.14778351 -17.37173462 47.18141174 C-17.01445282 46.18439743 -16.65717102 45.18738312 -16.2890625 44.16015625 C-15.9202597 43.11983749 -15.55145691 42.07951874 -15.17147827 41.00767517 C-14.39207184 38.81230075 -13.61024919 36.61778283 -12.82617188 34.42407227 C-11.6311112 31.07960265 -10.44383506 27.73244963 -9.2578125 24.38476562 C-8.49785385 22.24723294 -7.73745178 20.10985784 -6.9765625 17.97265625 C-6.44671249 16.48017113 -6.44671249 16.48017113 -5.90615845 14.95753479 C-5.56925995 14.01643356 -5.23236145 13.07533234 -4.88525391 12.10571289 C-4.59292877 11.28663956 -4.30060364 10.46756622 -3.99942017 9.62367249 C-2.76281603 6.37734592 -1.36842745 3.19299738 0 0 Z " fill="#F9FAFA" transform="translate(329,50)"/>
<path d="M0 0 C4.95 -0.0825 9.9 -0.165 15 -0.25 C17.31837891 -0.30462402 17.31837891 -0.30462402 19.68359375 -0.36035156 C28.22705627 -0.42925045 34.35935808 -0.09468405 41.05859375 5.81640625 C41.74115234 6.68072266 41.74115234 6.68072266 42.4375 7.5625 C42.91058594 8.14128906 43.38367188 8.72007813 43.87109375 9.31640625 C46.83374716 13.73475787 46.53697315 18.90253655 46 24 C44.20522872 29.92787316 41.01962539 33.51699463 36 37 C31.62625293 39.26553805 27.4979385 39.23590065 22.6875 39.125 C18.8821875 39.063125 18.8821875 39.063125 15 39 C15 46.26 15 53.52 15 61 C10.05 61 5.1 61 0 61 C0 40.87 0 20.74 0 0 Z " fill="#FBFCFC" transform="translate(374,50)"/>
<path d="M0 0 C34.65 0 69.3 0 105 0 C105 41.25 105 82.5 105 125 C70.35 125 35.7 125 0 125 C0 83.75 0 42.5 0 0 Z M3 3 C3 42.27 3 81.54 3 122 C35.67 122 68.34 122 102 122 C102 82.73 102 43.46 102 3 C69.33 3 36.66 3 3 3 Z " fill="#39BFC0" transform="translate(105,46)"/>
<path d="M0 0 C4.12486211 -0.08813808 8.24947739 -0.14077078 12.375 -0.1875 C14.10943359 -0.22520508 14.10943359 -0.22520508 15.87890625 -0.26367188 C23.16214554 -0.32539424 29.16654666 0.50137622 36 3 C37.36125 3.37125 37.36125 3.37125 38.75 3.75 C42.93814422 6.07674679 45.94208249 9.5181556 47.82421875 13.93359375 C49.93577529 21.85567466 50.66637342 32.66725316 47 40 C43.37 40 39.74 40 36 40 C36.08701172 37.77830078 36.08701172 37.77830078 36.17578125 35.51171875 C36.22267436 33.57034394 36.268175 31.62893514 36.3125 29.6875 C36.3753418 28.22280273 36.3753418 28.22280273 36.43945312 26.72851562 C36.48521591 24.06512146 36.47953307 21.62121579 36 19 C33.75911102 16.80787281 33.75911102 16.80787281 31 16 C30.29875 15.46375 29.5975 14.9275 28.875 14.375 C26.94262328 12.81086933 26.94262328 12.81086933 24 12 C24 11.34 24 10.68 24 10 C19.38 10 14.76 10 10 10 C10 19.9 10 29.8 10 40 C6.37 40 2.74 40 -1 40 C-1.02470935 34.78556667 -1.04286444 29.57116739 -1.05493164 24.35668945 C-1.059962 22.58259487 -1.06678699 20.80850444 -1.07543945 19.03442383 C-1.08756174 16.48517839 -1.09324126 13.93598774 -1.09765625 11.38671875 C-1.10281754 10.59287277 -1.10797882 9.79902679 -1.11329651 8.98112488 C-1.11362877 5.72343714 -1.03772826 3.11318479 0 0 Z " fill="#04DAC6" transform="translate(326,140)"/>
<path d="M0 0 C5.01315364 3.81954563 7.66519965 8.94790211 9.9296875 14.75 C9.9296875 15.41 9.9296875 16.07 9.9296875 16.75 C7.36540235 16.88559675 4.80833534 16.98433188 2.2421875 17.0625 C1.52095703 17.10439453 0.79972656 17.14628906 0.05664062 17.18945312 C-4.18235148 17.28623377 -5.58960539 17.15317371 -8.9765625 14.3125 C-9.6675 13.466875 -10.3584375 12.62125 -11.0703125 11.75 C-14.68024364 9.13591193 -18.77178198 9.20088632 -23.0703125 9.75 C-27.7734218 11.78088811 -30.78820369 15.18578239 -33.0703125 19.75 C-33.14226119 22.63370333 -33.16322958 25.49239664 -33.1328125 28.375 C-33.12830078 29.17679688 -33.12378906 29.97859375 -33.11914062 30.8046875 C-33.10734418 32.78649006 -33.08940855 34.76825433 -33.0703125 36.75 C-35.38464272 37.90716511 -36.93092062 37.98210436 -39.5078125 38.0625 C-40.29027344 38.09988281 -41.07273437 38.13726562 -41.87890625 38.17578125 C-44.0703125 37.75 -44.0703125 37.75 -45.83203125 36.21484375 C-47.53128656 32.83241441 -47.51880281 29.7005788 -47.4453125 26 C-47.43226074 24.92528442 -47.43226074 24.92528442 -47.41894531 23.82885742 C-47.19685042 15.83071051 -45.32058175 10.84708687 -40.0703125 4.75 C-39.78929687 4.09902344 -39.50828125 3.44804687 -39.21875 2.77734375 C-37.76854324 0.21728488 -36.33783006 -0.56293603 -33.7578125 -1.9375 C-32.99855469 -2.35386719 -32.23929687 -2.77023438 -31.45703125 -3.19921875 C-21.16306103 -7.73126128 -9.37928719 -5.66296585 0 0 Z " fill="#06D8C6" transform="translate(304.0703125,142.25)"/>
<path d="M0 0 C4.95 0 9.9 0 15 0 C15 20.13 15 40.26 15 61 C10.05 61 5.1 61 0 61 C0 40.87 0 20.74 0 0 Z " fill="#FDFEFE" transform="translate(428,50)"/>
<path d="M0 0 C1.32 0 2.64 0 4 0 C4 38.61 4 77.22 4 117 C36.01 117 68.02 117 101 117 C101 118.32 101 119.64 101 121 C67.67 121 34.34 121 0 121 C0 81.07 0 41.14 0 0 Z " fill="#00364A" transform="translate(95,60)"/>
<path d="M0 0 C1.32 0 2.64 0 4 0 C4 38.61 4 77.22 4 117 C36.01 117 68.02 117 101 117 C101 118.32 101 119.64 101 121 C67.67 121 34.34 121 0 121 C0 81.07 0 41.14 0 0 Z " fill="#003B46" transform="translate(101,54)"/>
<path d="M0 0 C13.9 0 13.9 0 18 3 C22.36079763 7.36079763 24.14735305 11.02491108 24.3125 17.1875 C24.24057229 22.62523456 23.39564213 26.67919789 20 31 C13.36866417 36.64369007 9.7366852 35 0 35 C0 23.45 0 11.9 0 0 Z " fill="#0D1429" transform="translate(468,63)"/>
<path d="M0 0 C26.73 0 53.46 0 81 0 C81 2.64 81 5.28 81 8 C54.27 8 27.54 8 0 8 C0 5.36 0 2.72 0 0 Z " fill="#11D3C6" transform="translate(117,70)"/>
<path d="M0 0 C32.67 0 65.34 0 99 0 C99 39.27 99 78.54 99 119 C66.33 119 33.66 119 0 119 C0 79.73 0 40.46 0 0 Z M1 2 C1 40.28 1 78.56 1 118 C32.68 118 64.36 118 97 118 C97 79.72 97 41.44 97 2 C65.32 2 33.64 2 1 2 Z " fill="#003D58" transform="translate(108,49)"/>
<path d="M0 0 C13.9 0 13.9 0 18 3 C22.34642262 7.45330186 24.15712736 10.52753295 24.25 16.75 C24.27578125 17.77609375 24.3015625 18.8021875 24.328125 19.859375 C24 23 24 23 21 29 C14.07 29 7.14 29 0 29 C0 19.43 0 9.86 0 0 Z " fill="#06182C" transform="translate(338,151)"/>
<path d="M0 0 C5.61 0 11.22 0 17 0 C16.67 0.99 16.34 1.98 16 3 C15.34 3 14.68 3 14 3 C14.2475 4.299375 14.2475 4.299375 14.5 5.625 C13.92589815 9.5001875 13.46206834 9.8791694 10.5 12.1875 C1.65455416 18.03839386 -7.53589983 19.69294739 -18 18 C-23.20938963 16.16831139 -28.06427651 13.93572349 -32 10 C-32.66 7.69 -33.32 5.38 -34 3 C-29.05 3 -24.1 3 -19 3 C-19 3.66 -19 4.32 -19 5 C-9.94629115 5.20720114 -9.94629115 5.20720114 -1 4 C-0.67 2.68 -0.34 1.36 0 0 Z " fill="#09D6C4" transform="translate(295,181)"/>
<path d="M0 0 C24.09 0 48.18 0 73 0 C73 2.64 73 5.28 73 8 C48.91 8 24.82 8 0 8 C0 5.36 0 2.72 0 0 Z " fill="#2C628A" transform="translate(117,88)"/>
<path d="M0 0 C3.96364619 0.26424308 5.74724095 0.68882316 8.75 3.25 C9.5625 5.9375 9.5625 5.9375 9.75 8.25 C10.41 8.25 11.07 8.25 11.75 8.25 C12.08 7.59 12.41 6.93 12.75 6.25 C13.41 6.25 14.07 6.25 14.75 6.25 C15.74 5.59 16.73 4.93 17.75 4.25 C20.625 3.8125 20.625 3.8125 23.75 4.25 C27.07274404 6.70594125 28.52618008 8.1756644 29.375 12.25 C28.52618008 16.3243356 27.07274404 17.79405875 23.75 20.25 C19.60775694 20.82991403 18.26824511 20.59549674 14.75 18.25 C13.76 18.25 12.77 18.25 11.75 18.25 C11.09 18.91 10.43 19.57 9.75 20.25 C5.45364557 21.63999702 1.05706953 21.54647143 -3.25 20.25 C-7.1345171 17.0266773 -9.05631016 14.96092688 -9.625 9.9375 C-9.15786625 5.34401813 -7.72959782 4.13552015 -4.25 1.25 C-3.25 0.25 -3.25 0.25 0 0 Z " fill="#0B182F" transform="translate(262.25,203.75)"/>
<path d="M0 0 C4.29 0 8.58 0 13 0 C13 13.53 13 27.06 13 41 C8.71 41 4.42 41 0 41 C0 27.47 0 13.94 0 0 Z " fill="#06D9C6" transform="translate(386,139)"/>
<path d="M0 0 C21.45 0 42.9 0 65 0 C65 2.64 65 5.28 65 8 C43.55 8 22.1 8 0 8 C0 5.36 0 2.72 0 0 Z " fill="#2C628A" transform="translate(117,106)"/>
<path d="M0 0 C3.96 0 7.92 0 12 0 C12.33 1.65 12.66 3.3 13 5 C15.27264504 4.74481529 17.54312705 4.47030939 19.8125 4.1875 C21.07707031 4.03667969 22.34164063 3.88585937 23.64453125 3.73046875 C26.95567685 3.33121521 26.95567685 3.33121521 28.53125 1.4375 C30 0 30 0 33.13671875 -0.29296875 C34.30847656 -0.25816406 35.48023438 -0.22335938 36.6875 -0.1875 C38.45673828 -0.14689453 38.45673828 -0.14689453 40.26171875 -0.10546875 C41.16535156 -0.07066406 42.06898438 -0.03585938 43 0 C43.495 2.475 43.495 2.475 44 5 C43.01 5 42.02 5 41 5 C40.67 6.32 40.34 7.64 40 9 C39.34 9 38.68 9 38 9 C38 9.66 38 10.32 38 11 C25.98023612 14.49968862 13.45564435 15.00216083 1 14 C0 13 0 13 -0.09765625 10.05859375 C-0.08605469 8.86363281 -0.07445312 7.66867188 -0.0625 6.4375 C-0.05347656 5.23996094 -0.04445313 4.04242188 -0.03515625 2.80859375 C-0.02355469 1.88175781 -0.01195312 0.95492187 0 0 Z " fill="#04DAC7" transform="translate(324,184)"/>
<path d="M0 0 C18.81 0 37.62 0 57 0 C57 2.64 57 5.28 57 8 C38.19 8 19.38 8 0 8 C0 5.36 0 2.72 0 0 Z " fill="#2C628B" transform="translate(117,124)"/>
<path d="M0 0 C0.66 0 1.32 0 2 0 C2 38.28 2 76.56 2 116 C34.01 116.33 66.02 116.66 99 117 C99 117.66 99 118.32 99 119 C66.33 119 33.66 119 0 119 C0 79.73 0 40.46 0 0 Z " fill="#00283C" transform="translate(102,55)"/>
<path d="M0 0 C0.33 0 0.66 0 1 0 C1 39.27 1 78.54 1 119 C-8 120.125 -8 120.125 -11.56860352 120.08229065 C-12.37729385 120.07527162 -13.18598419 120.06825258 -14.0191803 120.06102085 C-14.88038986 120.04805438 -15.74159943 120.03508791 -16.62890625 120.02172852 C-17.57152817 120.01193686 -18.51415009 120.00214521 -19.4853363 119.99205685 C-22.51113987 119.95940248 -25.53679122 119.91932149 -28.5625 119.87890625 C-30.44074967 119.85753943 -32.31900498 119.83666327 -34.19726562 119.81628418 C-41.1315803 119.73762637 -48.06578494 119.64949779 -55 119.5625 C-70.51 119.376875 -86.02 119.19125 -102 119 C-102 83.36 -102 47.72 -102 11 C-101.67 11 -101.34 11 -101 11 C-100.67 45.65 -100.34 80.3 -100 116 C-50.5 116.495 -50.5 116.495 0 117 C0 78.39 0 39.78 0 0 Z " fill="#2AC7C3" transform="translate(208,51)"/>
<path d="M0 0 C16.17 0 32.34 0 49 0 C49 2.64 49 5.28 49 8 C32.83 8 16.66 8 0 8 C0 5.36 0 2.72 0 0 Z " fill="#2C628A" transform="translate(117,142)"/>
<path d="M0 0 C0.99 0 1.98 0 3 0 C3 1.32 3 2.64 3 4 C4.32 4 5.64 4 7 4 C7.33 4.99 7.66 5.98 8 7 C8.33 6.01 8.66 5.02 9 4 C10.890625 4.21484375 10.890625 4.21484375 13 5 C14.46742502 7.89652178 15.11450315 10.85648617 16 14 C17.32 10.7 18.64 7.4 20 4 C21.32 4.33 22.64 4.66 24 5 C21.03 12.26 18.06 19.52 15 27 C13.02 26.67 11.04 26.34 9 26 C6.68019054 26.82342532 6.68019054 26.82342532 5 28 C4.34 27.34 3.68 26.68 3 26 C3.66 25.67 4.32 25.34 5 25 C5.66 25.33 6.32 25.66 7 26 C6.814375 25.38125 6.62875 24.7625 6.4375 24.125 C6 22 6 22 7 20 C6.21625 20.04125 5.4325 20.0825 4.625 20.125 C2 20 2 20 0 18 C-0.1953125 15.3984375 -0.1953125 15.3984375 -0.125 12.375 C-0.10695313 11.37210938 -0.08890625 10.36921875 -0.0703125 9.3359375 C-0.04710937 8.56507813 -0.02390625 7.79421875 0 7 C-0.66 7 -1.32 7 -2 7 C-2 6.01 -2 5.02 -2 4 C-1.34 4 -0.68 4 0 4 C0 2.68 0 1.36 0 0 Z " fill="#0B1830" transform="translate(396,204)"/>
<path d="M0 0 C0.99 0 1.98 0 3 0 C2.67 1.65 2.34 3.3 2 5 C-2.21672444 6.182263 -6.29482958 6.11815638 -10.64324951 6.08229065 C-11.9653217 6.07744696 -11.9653217 6.07744696 -13.31410241 6.07250541 C-16.27292203 6.0604237 -19.23164916 6.04105214 -22.19042969 6.02172852 C-24.30921731 6.01158643 -26.42800712 6.00189268 -28.54679871 5.99261475 C-34.30467274 5.96612672 -40.06249599 5.93334858 -45.82033062 5.89946485 C-51.83546364 5.86512883 -57.85062388 5.83654472 -63.86578369 5.80735779 C-75.25899091 5.7511976 -86.65216404 5.68984352 -98.0453341 5.62663645 C-111.01493037 5.55493559 -123.98455396 5.48900504 -136.9541831 5.42356598 C-163.6361575 5.28881082 -190.31808927 5.14678714 -217 5 C-217.33 5.66 -217.66 6.32 -218 7 C-218.33 7 -218.66 7 -219 7 C-219.66 10.96 -220.32 14.92 -221 19 C-221.33 19 -221.66 19 -222 19 C-222 15.37 -222 11.74 -222 8 C-228.27 8 -234.54 8 -241 8 C-241 6.68 -241 5.36 -241 4 C-161.47 4 -81.94 4 0 4 C0 2.68 0 1.36 0 0 Z " fill="#002632" transform="translate(641,180)"/>
<path d="M0 0 C4.29 0 8.58 0 13 0 C13.33 1.32 13.66 2.64 14 4 C19.61 4.33 25.22 4.66 31 5 C31 7.31 31 9.62 31 12 C28.12981559 13.43509221 25.66456277 13.11158506 22.4609375 13.09765625 C21.15898437 13.09443359 19.85703125 13.09121094 18.515625 13.08789062 C17.13541601 13.07953466 15.75520768 13.07106971 14.375 13.0625 C12.98698074 13.05748501 11.59895978 13.0529221 10.2109375 13.04882812 C6.80727327 13.03700985 3.4036313 13.0190739 0 13 C0 8.71 0 4.42 0 0 Z " fill="#05D9C6" transform="translate(386,184)"/>
<path d="M0 0 C10.18215613 -0.49070632 10.18215613 -0.49070632 14.125 1.875 C16.5734674 4.64992972 16.96678834 5.55994549 17.25 9.3125 C16.984656 13.22632394 16.36680088 14.93192479 14 18 C9.43362969 21.04424687 5.43284541 20.12783166 0 20 C0 13.4 0 6.8 0 0 Z " fill="#99B4C9" transform="translate(429,204)"/>
<path d="M0 0 C0.99 0.33 1.98 0.66 3 1 C3 4.3 3 7.6 3 11 C1.576875 11.020625 0.15375 11.04125 -1.3125 11.0625 C-2.51326172 11.07990234 -2.51326172 11.07990234 -3.73828125 11.09765625 C-6 11 -6 11 -9 10 C-9.33 10.33 -9.66 10.66 -10 11 C-12.49238569 11.12653198 -14.94470441 11.18519825 -17.4375 11.1875 C-18.47874023 11.20586914 -18.47874023 11.20586914 -19.54101562 11.22460938 C-21.36220901 11.22989842 -23.1828692 11.12169207 -25 11 C-27 9 -27 9 -27.25 6 C-27 3 -27 3 -25 1 C-21.26703674 0.61713197 -20.22373677 0.85084215 -17 3 C-16.34 2.34 -15.68 1.68 -15 1 C-13.00797888 1.22859259 -11.01571403 1.4646241 -9.03515625 1.77734375 C-6.533379 2.05105067 -4.43432826 1.57278312 -2 1 C-1.34 1.33 -0.68 1.66 0 2 C0 1.34 0 0.68 0 0 Z " fill="#293953" transform="translate(419,240)"/>
<path d="M0 0 C0 3.38928559 -0.58766616 4.20729197 -2.4375 6.9375 C-6.02996344 12.24943312 -6.18179757 16.72710307 -6.1875 23.0625 C-6.19974609 23.78244141 -6.21199219 24.50238281 -6.22460938 25.24414062 C-6.23519011 29.0426247 -6.15755655 30.76366518 -4 34 C-1.31964543 34.40842592 1.15615274 34.62959979 3.8515625 34.73046875 C4.62559418 34.770616 5.39962585 34.81076324 6.19711304 34.85212708 C8.6726288 34.97741531 11.14854144 35.08267509 13.625 35.1875 C15.3021477 35.26886625 16.97923288 35.35153225 18.65625 35.43554688 C22.77025932 35.63879404 26.8847351 35.82408269 31 36 C30.6640625 37.921875 30.6640625 37.921875 30 40 C24.13966113 42.79063756 18.19769679 42.50247195 12 41 C12 40.34 12 39.68 12 39 C7.05 39 2.1 39 -3 39 C-2.34 40.65 -1.68 42.3 -1 44 C-1.474375 43.360625 -1.94875 42.72125 -2.4375 42.0625 C-6.05420035 39.15149728 -9.47204894 39.19350218 -14 39 C-14 37.68 -14 36.36 -14 35 C-11.69 35 -9.38 35 -7 35 C-7.33 34.071875 -7.66 33.14375 -8 32.1875 C-10.26931828 24.10611477 -9.74014578 15.53509223 -6 8 C-4.15517504 5.19286177 -2.16275006 2.56870315 0 0 Z " fill="#0FBFB2" transform="translate(264,145)"/>
<path d="M0 0 C0.99 0 1.98 0 3 0 C3 2.31 3 4.62 3 7 C3.99 6.34 4.98 5.68 6 5 C12.10206897 5.21793103 12.10206897 5.21793103 14.9375 7.6875 C16.3613395 10.7864448 16.55153827 12.62182812 16 16 C13.9375 18.9375 13.9375 18.9375 11 21 C7.4375 20.75 7.4375 20.75 4 20 C2.68 20.33 1.36 20.66 0 21 C0 14.07 0 7.14 0 0 Z " fill="#99B5CA" transform="translate(536,203)"/>
<path d="M0 0 C12.34414995 -0.493766 12.34414995 -0.493766 15.38671875 1.796875 C17 4 17 4 17.5625 7.5 C17 11 17 11 15.25 13.4375 C10.1674438 15.88103663 5.59815683 15.24607283 0 15 C0 10.05 0 5.1 0 0 Z " fill="#0D1429" transform="translate(270,63)"/>
<path d="M0 0 C1.7015625 0.37125 1.7015625 0.37125 3.4375 0.75 C4.7575 0.42 6.0775 0.09 7.4375 -0.25 C7.4375 5.03 7.4375 10.31 7.4375 15.75 C6.1175 15.42 4.7975 15.09 3.4375 14.75 C2.4475 15.245 2.4475 15.245 1.4375 15.75 C-1.4375 16.125 -1.4375 16.125 -4.5625 15.75 C-7.42062053 13.19273427 -8.41817742 11.51972041 -9.125 7.75 C-8.1127705 2.35144265 -5.58231583 -0.39174146 0 0 Z " fill="#95B0C6" transform="translate(456.5625,208.25)"/>
<path d="M0 0 C1.7015625 0.37125 1.7015625 0.37125 3.4375 0.75 C4.7575 0.42 6.0775 0.09 7.4375 -0.25 C7.4375 5.03 7.4375 10.31 7.4375 15.75 C6.4475 15.75 5.4575 15.75 4.4375 15.75 C4.4375 15.09 4.4375 14.43 4.4375 13.75 C3.4475 14.41 2.4575 15.07 1.4375 15.75 C-1.5 16.1875 -1.5 16.1875 -4.5625 15.75 C-7.42062053 13.19273427 -8.41817742 11.51972041 -9.125 7.75 C-8.1127705 2.35144265 -5.58231583 -0.39174146 0 0 Z " fill="#A0BDD2" transform="translate(524.5625,208.25)"/>
<path d="M0 0 C2.375 0.4375 2.375 0.4375 5.375 2.4375 C5.375 1.7775 5.375 1.1175 5.375 0.4375 C6.365 0.4375 7.355 0.4375 8.375 0.4375 C8.375 5.7175 8.375 10.9975 8.375 16.4375 C7.055 16.1075 5.735 15.7775 4.375 15.4375 C3.385 15.9325 3.385 15.9325 2.375 16.4375 C-0.5 16.8125 -0.5 16.8125 -3.625 16.4375 C-6.48312053 13.88023427 -7.48067742 12.20722041 -8.1875 8.4375 C-7.30499508 3.73080711 -4.81865495 0.80310916 0 0 Z " fill="#A1BCD0" transform="translate(485.625,207.5625)"/>
<path d="M0 0 C0.66 0 1.32 0 2 0 C2 1.32 2 2.64 2 4 C3.11375 3.79375 4.2275 3.5875 5.375 3.375 C7.169375 3.189375 7.169375 3.189375 9 3 C9.66 3.66 10.32 4.32 11 5 C10.42307692 11.57692308 10.42307692 11.57692308 9 13 C5.69483066 13.25035974 2.37603959 13.18521952 -0.9375 13.1875 C-1.87013672 13.19974609 -2.80277344 13.21199219 -3.76367188 13.22460938 C-4.65505859 13.22654297 -5.54644531 13.22847656 -6.46484375 13.23046875 C-7.285896 13.23457764 -8.10694824 13.23868652 -8.95288086 13.24291992 C-11 13 -11 13 -13 11 C-13.25 8 -13.25 8 -13 5 C-12.34 4.34 -11.68 3.68 -11 3 C-8.66666667 3 -6.33333333 3 -4 3 C-3.34 2.34 -2.68 1.68 -2 1 C-2 2.32 -2 3.64 -2 5 C-1.34 5 -0.68 5 0 5 C0 3.35 0 1.7 0 0 Z " fill="#3B4D66" transform="translate(308,238)"/>
<path d="M0 0 C11.36470588 -0.49411765 11.36470588 -0.49411765 14.35546875 1.83203125 C16 4 16 4 16.5625 6.9375 C16 10 16 10 14.1875 12.875 C9.40343027 16.06437982 5.67799218 15.34204772 0 15 C0 10.05 0 5.1 0 0 Z " fill="#0E1527" transform="translate(389,62)"/>
<path d="M0 0 C3.32274404 2.45594125 4.77618008 3.9256644 5.625 8 C4.77618008 12.0743356 3.32274404 13.54405875 0 16 C-3 16.625 -3 16.625 -6 16 C-9.66900829 13.36788535 -10.84009531 11.91145674 -11.625 7.4375 C-11 4 -11 4 -8.875 1.5625 C-5.46537255 -0.29055839 -3.81804737 -0.71588388 0 0 Z " fill="#97B4C8" transform="translate(286,208)"/>
<path d="M0 0 C1.32 0.33 2.64 0.66 4 1 C4.33 0.67 4.66 0.34 5 0 C7.33746522 0.30300475 9.67085177 0.63858045 12 1 C12.99 1 13.98 1 15 1 C15.33 0.67 15.66 0.34 16 0 C21.29392491 -0.4603413 21.29392491 -0.4603413 23.68359375 1.09765625 C25.64837283 3.93696608 25.28858169 6.28441648 25.1875 9.6875 C25.16042969 10.86699219 25.13335937 12.04648438 25.10546875 13.26171875 C25.07066406 14.16535156 25.03585937 15.06898438 25 16 C24.01 16 23.02 16 22 16 C21.67 12.37 21.34 8.74 21 5 C18.525 4.505 18.525 4.505 16 4 C14.26043342 5.73956658 14.62809614 8.1936622 14.4375 10.5625 C14.35371094 11.57441406 14.26992188 12.58632812 14.18359375 13.62890625 C14.12300781 14.41136719 14.06242187 15.19382813 14 16 C13.01 16 12.02 16 11 16 C10.67 12.37 10.34 8.74 10 5 C8.35 4.67 6.7 4.34 5 4 C3.26043342 5.73956658 3.62809614 8.1936622 3.4375 10.5625 C3.35371094 11.57441406 3.26992188 12.58632812 3.18359375 13.62890625 C3.12300781 14.41136719 3.06242187 15.19382813 3 16 C2.01 16 1.02 16 0 16 C0 10.72 0 5.44 0 0 Z " fill="#9EB8CE" transform="translate(294,208)"/>
<path d="M0 0 C1.32 0.33 2.64 0.66 4 1 C4.33 0.67 4.66 0.34 5 0 C7.33746522 0.30300475 9.67085177 0.63858045 12 1 C12.99 1 13.98 1 15 1 C15.33 0.67 15.66 0.34 16 0 C22.6 0.6 22.6 0.6 25 3 C25.1953125 6.0390625 25.1953125 6.0390625 25.125 9.625 C25.10695313 10.81351563 25.08890625 12.00203125 25.0703125 13.2265625 C25.04710937 14.14179688 25.02390625 15.05703125 25 16 C24.01 16 23.02 16 22 16 C21.67 12.37 21.34 8.74 21 5 C18.525 4.505 18.525 4.505 16 4 C14.26043342 5.73956658 14.62809614 8.1936622 14.4375 10.5625 C14.35371094 11.57441406 14.26992188 12.58632812 14.18359375 13.62890625 C14.12300781 14.41136719 14.06242187 15.19382813 14 16 C13.01 16 12.02 16 11 16 C10.67 12.37 10.34 8.74 10 5 C8.35 4.67 6.7 4.34 5 4 C3.26043342 5.73956658 3.62809614 8.1936622 3.4375 10.5625 C3.35371094 11.57441406 3.26992188 12.58632812 3.18359375 13.62890625 C3.12300781 14.41136719 3.06242187 15.19382813 3 16 C2.01 16 1.02 16 0 16 C0 10.72 0 5.44 0 0 Z " fill="#A1BDD2" transform="translate(323,208)"/>
<path d="M0 0 C2.12261076 2.12261076 2.58711498 3.26899902 3.5078125 6.0625 C3.77207031 6.85914062 4.03632813 7.65578125 4.30859375 8.4765625 C4.57800781 9.30929688 4.84742188 10.14203125 5.125 11 C5.40214844 11.83273438 5.67929687 12.66546875 5.96484375 13.5234375 C8 19.71913485 8 19.71913485 8 22 C3.05 22 -1.9 22 -7 22 C-4.625 14.9375 -4.625 14.9375 -3.88916016 12.75756836 C-2.47516649 8.53342047 -1.19426281 4.29153318 0 0 Z " fill="#12192A" transform="translate(337,67)"/>
<path d="M0 0 C4.62 0 9.24 0 14 0 C14 0.33 14 0.66 14 1 C10.04 1 6.08 1 2 1 C2 12.55 2 24.1 2 36 C6.62 35.67 11.24 35.34 16 35 C16.33 35.66 16.66 36.32 17 37 C14.0384304 38.4807848 11.16493705 38.35314037 7.875 38.5625 C6.59367187 38.64628906 5.31234375 38.73007813 3.9921875 38.81640625 C3.00476563 38.87699219 2.01734375 38.93757813 1 39 C0.67 37.35 0.34 35.7 0 34 C-3.96 34 -7.92 34 -12 34 C-12 32.68 -12 31.36 -12 30 C-8.04 30 -4.08 30 0 30 C0 20.1 0 10.2 0 0 Z " fill="#13C7BA" transform="translate(336,150)"/>
<path d="M0 0 C2.6875 0.1875 2.6875 0.1875 5.4375 0.75 C6.18 0.894375 6.9225 1.03875 7.6875 1.1875 C8.0175 0.8575 8.3475 0.5275 8.6875 0.1875 C10.35367115 0.14686168 12.02138095 0.144779 13.6875 0.1875 C15.27288318 2.70546153 15.7248656 3.86615586 15.375 6.875 C14.6875 9.1875 14.6875 9.1875 13.6875 10.1875 C9.96525401 10.48136153 8.90963757 10.33559171 5.6875 8.1875 C4.6975 8.8475 3.7075 9.5075 2.6875 10.1875 C0.125 10.4375 0.125 10.4375 -2.3125 10.1875 C-4.3125 8.1875 -4.3125 8.1875 -4.5625 5.1875 C-4.26143193 1.57468312 -3.74473289 0.30362699 0 0 Z " fill="#23324C" transform="translate(374.3125,240.8125)"/>
<path d="M0 0 C4.0425 -0.061875 8.085 -0.12375 12.25 -0.1875 C13.49813477 -0.21481201 14.74626953 -0.24212402 16.03222656 -0.27026367 C23.66156772 -0.32599166 30.78009158 0.38945852 38 3 C38.66 3.66 39.32 4.32 40 5 C37 5 37 5 33.65625 4.0390625 C27.69578437 2.49163392 21.62430153 2.53709579 15.5 2.375 C11.375 2.25125 7.25 2.1275 3 2 C2.67 15.2 2.34 28.4 2 42 C1.34 42 0.68 42 0 42 C0 28.14 0 14.28 0 0 Z " fill="#29C1B9" transform="translate(323,138)"/>
<path d="M0 0 C1.48831242 0.00667405 2.97660807 0.01863442 4.46484375 0.03515625 C5.22345703 0.03966797 5.98207031 0.04417969 6.76367188 0.04882812 C8.64326246 0.06064945 10.52281274 0.07858547 12.40234375 0.09765625 C12.40234375 0.42765625 12.40234375 0.75765625 12.40234375 1.09765625 C7.45234375 1.09765625 2.50234375 1.09765625 -2.59765625 1.09765625 C-2.59765625 14.95765625 -2.59765625 28.81765625 -2.59765625 43.09765625 C-5.89765625 43.09765625 -9.19765625 43.09765625 -12.59765625 43.09765625 C-12.43265625 42.33453125 -12.26765625 41.57140625 -12.09765625 40.78515625 C-10.89647166 31.92641991 -11.53266553 24.50813674 -14.59765625 16.09765625 C-13.93765625 16.09765625 -13.27765625 16.09765625 -12.59765625 16.09765625 C-9.04279808 21.42994351 -9.46233014 27.27683461 -9.53515625 33.47265625 C-9.53966797 34.20871094 -9.54417969 34.94476563 -9.54882812 35.703125 C-9.56050483 37.50133783 -9.57843614 39.29950822 -9.59765625 41.09765625 C-7.94765625 41.42765625 -6.29765625 41.75765625 -4.59765625 42.09765625 C-4.60551147 40.2424939 -4.60551147 40.2424939 -4.61352539 38.34985352 C-4.63157186 33.778409 -4.64308696 29.20696766 -4.65258789 24.63549805 C-4.65762892 22.65372184 -4.66446163 20.67194936 -4.6730957 18.69018555 C-4.6851714 15.84813516 -4.6908867 13.00613378 -4.6953125 10.1640625 C-4.70047379 9.27239883 -4.70563507 8.38073517 -4.71095276 7.46205139 C-4.71114802 5.34025024 -4.65975655 3.21854845 -4.59765625 1.09765625 C-3.59765625 0.09765625 -3.59765625 0.09765625 0 0 Z " fill="#002E38" transform="translate(387.59765625,136.90234375)"/>
<path d="M0 0 C7 0 7 0 9.4375 1.625 C11.47161336 4.71685231 11.60605429 6.36367425 11 10 C9.4375 12.375 9.4375 12.375 7 14 C4.69 14 2.38 14 0 14 C0 9.38 0 4.76 0 0 Z " fill="#0F1E35" transform="translate(432,207)"/>
<path d="M0 0 C34.98 0 69.96 0 106 0 C106 0.33 106 0.66 106 1 C71.35 1 36.7 1 1 1 C1 2.98 1 4.96 1 7 C-0.98 7 -2.96 7 -5 7 C-5 8.98 -5 10.96 -5 13 C-6.65 13 -8.3 13 -10 13 C-9.01 12.34 -8.02 11.68 -7 11 C-6.855625 10.195625 -6.71125 9.39125 -6.5625 8.5625 C-6 6 -6 6 -4.0625 4.1875 C-2 3 -2 3 0 3 C0 2.01 0 1.02 0 0 Z " fill="#002937" transform="translate(104,45)"/>
<path d="M0 0 C3.9336482 0.26224321 5.6958038 0.8246089 8.75 3.25 C9.08 4.24 9.41 5.23 9.75 6.25 C4.875 5.375 4.875 5.375 3.75 4.25 C1.07941149 4.10884839 -1.57432238 4.20752893 -4.25 4.25 C-4.44573608 5.68640171 -4.63127816 7.12419504 -4.8125 8.5625 C-4.96912109 9.76326172 -4.96912109 9.76326172 -5.12890625 10.98828125 C-5.39755178 13.41817116 -5.39755178 13.41817116 -4.25 16.25 C-0.2399066 16.42864631 -0.2399066 16.42864631 3.75 16.25 C4.41 15.59 5.07 14.93 5.75 14.25 C7.875 14.625 7.875 14.625 9.75 15.25 C5.05416951 20.10235817 5.05416951 20.10235817 0.4375 20.625 C-3.25 20.25 -3.25 20.25 -6.125 17.875 C-9.39890672 13.83076228 -9.78202646 11.48159355 -9.25 6.25 C-6.8125 3.375 -6.8125 3.375 -4.25 1.25 C-3.25 0.25 -3.25 0.25 0 0 Z " fill="#99B4CA" transform="translate(262.25,203.75)"/>
<path d="M0 0 C2.95529457 0.36040178 3.75137927 1.02476855 5.5625 3.3125 C5.8925 2.3225 6.2225 1.3325 6.5625 0.3125 C9.9375 0.1875 9.9375 0.1875 13.5625 0.3125 C15.5625 2.3125 15.5625 2.3125 15.7578125 4.2578125 C15.69270833 6.27604167 15.62760417 8.29427083 15.5625 10.3125 C15.2325 10.3125 14.9025 10.3125 14.5625 10.3125 C14.2325 8.0025 13.9025 5.6925 13.5625 3.3125 C12.2425 3.3125 10.9225 3.3125 9.5625 3.3125 C9.2325 5.6225 8.9025 7.9325 8.5625 10.3125 C7.758125 10.126875 6.95375 9.94125 6.125 9.75 C5.279375 9.605625 4.43375 9.46125 3.5625 9.3125 C3.2325 9.6425 2.9025 9.9725 2.5625 10.3125 C0.125 10.5 0.125 10.5 -2.4375 10.3125 C-4.4375 8.3125 -4.4375 8.3125 -4.6875 5.3125 C-4.37675292 1.58353509 -3.7821044 0.48488518 0 0 Z " fill="#2E3F59" transform="translate(656.4375,240.6875)"/>
<path d="M0 0 C1.38294718 0.01329757 2.76582404 0.03715018 4.1484375 0.0703125 C4.85484375 0.07933594 5.56125 0.08835938 6.2890625 0.09765625 C8.03399848 0.12123647 9.77876045 0.15710789 11.5234375 0.1953125 C10.80220703 0.82373047 10.80220703 0.82373047 10.06640625 1.46484375 C7.73684302 4.07749314 7.84374743 6.80002729 7.5234375 10.1953125 C6.5334375 9.8653125 5.5434375 9.5353125 4.5234375 9.1953125 C2.52391132 9.36313159 2.52391132 9.36313159 0.4609375 9.7578125 C-0.8384375 9.9021875 -2.1378125 10.0465625 -3.4765625 10.1953125 C-5.4765625 8.1953125 -5.4765625 8.1953125 -5.7265625 5.1953125 C-5.35555032 0.74316637 -4.41800599 0.24820258 0 0 Z " fill="#20314B" transform="translate(543.4765625,240.8046875)"/>
<path d="M0 0 C1.890625 0.21484375 1.890625 0.21484375 4 1 C5.46742502 3.89652178 6.11450315 6.85648617 7 10 C8.32 6.7 9.64 3.4 11 0 C12.32 0.33 13.64 0.66 15 1 C12.03 8.26 9.06 15.52 6 23 C4.68 22.67 3.36 22.34 2 22 C2.5259375 20.9790625 2.5259375 20.9790625 3.0625 19.9375 C4.63568971 15.00817225 3.4792832 10.85859637 1.4375 6.25 C0 3 0 3 0 0 Z " fill="#99B6CA" transform="translate(405,208)"/>
<path d="M0 0 C1.10661987 0.00012085 1.10661987 0.00012085 2.2355957 0.00024414 C4.4567443 -0.00192049 6.67737835 -0.02000717 8.8984375 -0.0390625 C23.03207783 -0.09835611 23.03207783 -0.09835611 28.92773438 2.18554688 C29.42273438 3.67054688 29.42273438 3.67054688 29.92773438 5.18554688 C28.86425781 4.87810547 28.86425781 4.87810547 27.77929688 4.56445312 C15.26622841 1.39831352 2.79513408 1.51718089 -10.07226562 1.18554688 C-10.07226562 15.04554688 -10.07226562 28.90554687 -10.07226562 43.18554688 C-13.04226563 43.18554688 -16.01226562 43.18554688 -19.07226562 43.18554688 C-19.07226562 42.85554688 -19.07226562 42.52554688 -19.07226562 42.18554688 C-16.43226563 42.18554688 -13.79226563 42.18554688 -11.07226562 42.18554688 C-11.18171278 37.72668762 -11.31244228 33.26870532 -11.44726562 28.81054688 C-11.47820312 27.53953125 -11.50914062 26.26851562 -11.54101562 24.95898438 C-11.5796875 23.74726563 -11.61835938 22.53554687 -11.65820312 21.28710938 C-11.68962402 20.16643066 -11.72104492 19.04575195 -11.75341797 17.89111328 C-11.80637766 15.03844276 -11.80637766 15.03844276 -14.07226562 13.18554688 C-13.74226563 12.85554687 -13.41226562 12.52554688 -13.07226562 12.18554688 C-12.86389143 10.35648452 -12.70476903 8.52166554 -12.57226562 6.68554688 C-11.945359 -2.00158775 -7.72950505 0.02674456 0 0 Z " fill="#01313B" transform="translate(333.072265625,136.814453125)"/>
<path d="M0 0 C0.825 0.04125 1.65 0.0825 2.5 0.125 C3.16 0.125 3.82 0.125 4.5 0.125 C8.16666667 0.125 11.83333333 0.125 15.5 0.125 C15.5 3.425 15.5 6.725 15.5 10.125 C12.125 10.3125 12.125 10.3125 8.5 10.125 C6.5 7.125 6.5 7.125 6.5 4.125 C2.98966871 2.43869881 2.98966871 2.43869881 -0.8125 2.5 C-1.369375 2.70625 -1.92625 2.9125 -2.5 3.125 C-2.17 4.775 -1.84 6.425 -1.5 8.125 C0.48 7.795 2.46 7.465 4.5 7.125 C3.51 8.61 3.51 8.61 2.5 10.125 C0 10.4375 0 10.4375 -2.5 10.125 C-4.5 8.125 -4.5 8.125 -4.75 5.125 C-4.43729549 1.37254586 -3.86894665 0.19344733 0 0 Z " fill="#2A3852" transform="translate(615.5,240.875)"/>
<path d="M0 0 C0.33 0 0.66 0 1 0 C1 4.29 1 8.58 1 13 C16.345 12.505 16.345 12.505 32 12 C32 9.69 32 7.38 32 5 C26.39 5 20.78 5 15 5 C15 4.67 15 4.34 15 4 C21.27 4 27.54 4 34 4 C34 7.63 34 11.26 34 15 C22.78 15 11.56 15 0 15 C0 10.05 0 5.1 0 0 Z " fill="#35C3BC" transform="translate(385,184)"/>
<path d="M0 0 C6.3782235 -0.36103152 6.3782235 -0.36103152 8.9375 1.125 C10.52990283 3.93512264 10.45319325 5.82764724 10 9 C8.375 11.375 8.375 11.375 6 13 C4.02 13 2.04 13 0 13 C0 8.71 0 4.42 0 0 Z " fill="#273750" transform="translate(588,238)"/>
<path d="M0 0 C0.99 0 1.98 0 3 0 C3.33 3.63 3.66 7.26 4 11 C5.65 11.33 7.3 11.66 9 12 C10.73956658 10.26043342 10.37190386 7.8063378 10.5625 5.4375 C10.64628906 4.42558594 10.73007812 3.41367188 10.81640625 2.37109375 C10.87699219 1.58863281 10.93757813 0.80617187 11 0 C11.99 0 12.98 0 14 0 C14 5.28 14 10.56 14 16 C12.68 15.67 11.36 15.34 10 15 C9.67 15.33 9.34 15.66 9 16 C6.125 16.3125 6.125 16.3125 3 16 C0.59647362 13.6745464 0.03268283 12.3364153 -0.29296875 8.984375 C-0.25816406 7.91703125 -0.22335937 6.8496875 -0.1875 5.75 C-0.14689453 4.13351563 -0.14689453 4.13351563 -0.10546875 2.484375 C-0.07066406 1.66453125 -0.03585937 0.8446875 0 0 Z " fill="#98B3C9" transform="translate(352,208)"/>
<path d="M0 0 C1.32 0.33 2.64 0.66 4 1 C4.33 0.67 4.66 0.34 5 0 C11.6 0.6 11.6 0.6 14 3 C14.1953125 6.0390625 14.1953125 6.0390625 14.125 9.625 C14.10695313 10.81351563 14.08890625 12.00203125 14.0703125 13.2265625 C14.04710937 14.14179688 14.02390625 15.05703125 14 16 C13.01 16 12.02 16 11 16 C10.67 12.37 10.34 8.74 10 5 C8.35 4.67 6.7 4.34 5 4 C3.26043342 5.73956658 3.62809614 8.1936622 3.4375 10.5625 C3.35371094 11.57441406 3.26992188 12.58632812 3.18359375 13.62890625 C3.12300781 14.41136719 3.06242187 15.19382813 3 16 C2.01 16 1.02 16 0 16 C0 10.72 0 5.44 0 0 Z " fill="#A0BCD1" transform="translate(370,208)"/>
<path d="M0 0 C0.66 0.33 1.32 0.66 2 1 C2 1.66 2 2.32 2 3 C4.31 3.66 6.62 4.32 9 5 C9.33 6.32 9.66 7.64 10 9 C7.36 9 4.72 9 2 9 C2.99 10.485 2.99 10.485 4 12 C5.65 11.67 7.3 11.34 9 11 C8.67 11.99 8.34 12.98 8 14 C4.28400809 14.20086443 3.22791555 14.1519437 0 12 C0 12.66 0 13.32 0 14 C-0.99 14 -1.98 14 -3 14 C-3 9.71 -3 5.42 -3 1 C-2.01 0.67 -1.02 0.34 0 0 Z " fill="#23344E" transform="translate(323,237)"/>
<path d="M0 0 C2.76229093 0.26307533 4.31544197 0.73684129 6.625 2.25 C7.615 3.735 7.615 3.735 8.625 5.25 C10.67503955 6.44232613 10.67503955 6.44232613 12.625 7.25 C12.295 7.91 11.965 8.57 11.625 9.25 C11.068125 9.04375 10.51125 8.8375 9.9375 8.625 C6.94630596 8.13994151 5.39501862 9.10145569 2.625 10.25 C-0.0625 10.5 -0.0625 10.5 -2.375 10.25 C-4.375 8.25 -4.375 8.25 -4.625 5.25 C-4.31898989 1.57787865 -3.76369618 0.39617854 0 0 Z " fill="#0A1B35" transform="translate(396.375,240.75)"/>
<path d="M0 0 C0.66 0 1.32 0 2 0 C2 1.32 2 2.64 2 4 C2.928125 3.79375 3.85625 3.5875 4.8125 3.375 C8 3 8 3 11 5 C11.1875 8.125 11.1875 8.125 11 11 C10.01 11 9.02 11 8 11 C8.165 10.38125 8.33 9.7625 8.5 9.125 C9.07634644 7.03936614 9.07634644 7.03936614 9 5 C7.02 5.33 5.04 5.66 3 6 C2.67 8.31 2.34 10.62 2 13 C0.34385343 13.38218767 -1.32457024 13.71395102 -3 14 C-3.33 13.67 -3.66 13.34 -4 13 C-4.825 13 -5.65 13 -6.5 13 C-7.325 13 -8.15 13 -9 13 C-10 12 -10 12 -10.09765625 9.93359375 C-10.08605469 9.10988281 -10.07445312 8.28617188 -10.0625 7.4375 C-10.05347656 6.61121094 -10.04445313 5.78492188 -10.03515625 4.93359375 C-10.02355469 4.29550781 -10.01195312 3.65742188 -10 3 C-9.67 3 -9.34 3 -9 3 C-9 5.64 -9 8.28 -9 11 C-7.35 10.67 -5.7 10.34 -4 10 C-3.67 7.69 -3.34 5.38 -3 3 C-2.01 3.33 -1.02 3.66 0 4 C0 2.68 0 1.36 0 0 Z " fill="#40516B" transform="translate(479,238)"/>
<path d="M0 0 C0.33 0.66 0.66 1.32 1 2 C-0.65 2.33 -2.3 2.66 -4 3 C-4.33 3.99 -4.66 4.98 -5 6 C-8.29701062 7.34807677 -11.7354961 7.10070113 -15.25 7.0625 C-16.32765625 7.05347656 -17.4053125 7.04445312 -18.515625 7.03515625 C-19.33546875 7.02355469 -20.1553125 7.01195312 -21 7 C-21 5.02 -21 3.04 -21 1 C-10.605 0.505 -10.605 0.505 0 0 Z " fill="#14928D" transform="translate(359,179)"/>
<path d="M0 0 C6.6 0 13.2 0 20 0 C19.67 1.32 19.34 2.64 19 4 C13.13966113 6.79063756 7.19769679 6.50247195 1 5 C1 4.34 1 3.68 1 3 C0.34 2.67 -0.32 2.34 -1 2 C-0.67 1.34 -0.34 0.68 0 0 Z " fill="#13BAAF" transform="translate(275,181)"/>
<path d="M0 0 C0.66 1.32 1.32 2.64 2 4 C3.1446875 3.690625 3.1446875 3.690625 4.3125 3.375 C7 3 7 3 10 5 C10.3125 8 10.3125 8 10 11 C8 13 8 13 5.5625 13.125 C4.716875 13.08375 3.87125 13.0425 3 13 C2.01 13 1.02 13 0 13 C0 8.71 0 4.42 0 0 Z " fill="#2F3F59" transform="translate(426,238)"/>
<path d="M0 0 C0.99 0 1.98 0 3 0 C3 1.32 3 2.64 3 4 C4.32 4 5.64 4 7 4 C7 4.99 7 5.98 7 7 C5.68 7 4.36 7 3 7 C3 10.3 3 13.6 3 17 C4.32 17 5.64 17 7 17 C7 17.99 7 18.98 7 20 C4.625 20.125 4.625 20.125 2 20 C0 18 0 18 -0.1953125 15.3984375 C-0.17210937 14.40070313 -0.14890625 13.40296875 -0.125 12.375 C-0.10695313 11.37210938 -0.08890625 10.36921875 -0.0703125 9.3359375 C-0.04710937 8.56507813 -0.02390625 7.79421875 0 7 C-0.66 7 -1.32 7 -2 7 C-2 6.01 -2 5.02 -2 4 C-1.34 4 -0.68 4 0 4 C0 2.68 0 1.36 0 0 Z " fill="#A3BFD4" transform="translate(396,204)"/>
<path d="M0 0 C0.99 0 1.98 0 3 0 C3 1.32 3 2.64 3 4 C4.32 4 5.64 4 7 4 C7 4.99 7 5.98 7 7 C5.68 7 4.36 7 3 7 C3 10.3 3 13.6 3 17 C4.32 17 5.64 17 7 17 C7 17.99 7 18.98 7 20 C4.625 20.125 4.625 20.125 2 20 C0 18 0 18 -0.1953125 15.3984375 C-0.17210937 14.40070313 -0.14890625 13.40296875 -0.125 12.375 C-0.10695313 11.37210938 -0.08890625 10.36921875 -0.0703125 9.3359375 C-0.04710937 8.56507813 -0.02390625 7.79421875 0 7 C-0.66 7 -1.32 7 -2 7 C-2 6.01 -2 5.02 -2 4 C-1.34 4 -0.68 4 0 4 C0 2.68 0 1.36 0 0 Z " fill="#A2C0D4" transform="translate(469,204)"/>
<path d="M0 0 C3.625 0.375 3.625 0.375 7 1 C7.625 4.375 7.625 4.375 8 8 C6 10 6 10 3 10.25 C0 10 0 10 -2 8 C-2.25 5 -2.25 5 -2 2 C-1.34 1.34 -0.68 0.68 0 0 Z " fill="#31425B" transform="translate(602,241)"/>
<path d="M0 0 C1 2 1 2 0.375 4.4375 C-2.00491995 8.87280536 -6.37347438 10.45782479 -11 12 C-15.79480317 12.81912284 -20.38569158 13.11851635 -25.24609375 13.09765625 C-25.90207047 13.0962413 -26.55804718 13.09482635 -27.23390198 13.09336853 C-29.30181702 13.08783031 -31.36961842 13.07529002 -33.4375 13.0625 C-34.85090988 13.05747699 -36.26432148 13.0529155 -37.67773438 13.04882812 C-41.11852568 13.03788126 -44.55925172 13.02066038 -48 13 C-48 12.67 -48 12.34 -48 12 C-47.17910889 11.9906543 -46.35821777 11.98130859 -45.51245117 11.97167969 C-42.41251508 11.92717987 -39.31350047 11.86535424 -36.21411133 11.79248047 C-34.23476765 11.75099079 -32.25504969 11.72877488 -30.27539062 11.70703125 C-20.46093265 11.45856396 -10.65494162 10.45390499 -3.3125 3.25 C-2.66925781 2.63640625 -2.02601563 2.0228125 -1.36328125 1.390625 C-0.91339844 0.93171875 -0.46351563 0.4728125 0 0 Z " fill="#002F3A" transform="translate(371,187)"/>
<path d="M0 0 C2.33944736 0.28730055 4.6739143 0.61936779 7 1 C8.33157895 6.44736842 8.33157895 6.44736842 6.875 8.875 C4.38370746 10.36977553 2.85550958 10.43930917 0 10 C-2 7 -2 7 -1.6875 3.875 C-1 1 -1 1 0 0 Z " fill="#132339" transform="translate(280,211)"/>
<path d="M0 0 C0.99 0 1.98 0 3 0 C3 5.61 3 11.22 3 17 C5.31 17 7.62 17 10 17 C10 17.99 10 18.98 10 20 C6.7 20 3.4 20 0 20 C0 13.4 0 6.8 0 0 Z " fill="#A3BED2" transform="translate(505,204)"/>
<path d="M0 0 C0.78375 0.04125 1.5675 0.0825 2.375 0.125 C2.66375 0.764375 2.9525 1.40375 3.25 2.0625 C4.20323451 4.27706079 4.20323451 4.27706079 6.375 5.125 C5.715 5.125 5.055 5.125 4.375 5.125 C4.230625 5.764375 4.08625 6.40375 3.9375 7.0625 C3.375 9.125 3.375 9.125 2.375 10.125 C-0.0625 10.3125 -0.0625 10.3125 -2.625 10.125 C-4.625 8.125 -4.625 8.125 -4.875 5.125 C-4.55416156 1.2749387 -3.94115238 0.18767392 0 0 Z " fill="#26364E" transform="translate(504.625,240.875)"/>
<path d="M0 0 C1.32841008 5.43440487 1.32841008 5.43440487 -0.125 7.9375 C-2 9 -2 9 -4.5625 8.8125 C-7 8 -7 8 -9 6 C-8.75 2.9375 -8.75 2.9375 -8 0 C-5.13822943 -1.43088528 -3.06624227 -0.59991697 0 0 Z " fill="#071A30" transform="translate(460,212)"/>
<path d="M0 0 C0.66 0.66 1.32 1.32 2 2 C1.67028521 5.29714793 1.3773161 6.6226839 -1 9 C-3.5 9.3125 -3.5 9.3125 -6 9 C-8 6 -8 6 -7.75 2.875 C-7.37875 1.451875 -7.37875 1.451875 -7 0 C-4.29393021 -1.35303489 -2.8671629 -0.7884698 0 0 Z " fill="#0F1F36" transform="translate(547,212)"/>
<path d="M0 0 C1.65 0.33 3.3 0.66 5 1 C4.67 1.66 4.34 2.32 4 3 C3.01 2.67 2.02 2.34 1 2 C2.15173355 4.46800047 3.04783565 6.04783565 5 8 C6.32 7.34 7.64 6.68 9 6 C8.814375 6.78375 8.62875 7.5675 8.4375 8.375 C7.74037734 10.97089775 7.74037734 10.97089775 9 13 C8.360625 12.814375 7.72125 12.62875 7.0625 12.4375 C6.0415625 12.2209375 6.0415625 12.2209375 5 12 C4.67 12.33 4.34 12.66 4 13 C1.5625 13.1875 1.5625 13.1875 -1 13 C-1.66 12.34 -2.32 11.68 -3 11 C-2.57469657 7.17226914 -1.26430036 3.6243277 0 0 Z " fill="#51637C" transform="translate(343,238)"/>
<path d="M0 0 C0.66 0.66 1.32 1.32 2 2 C1.625 5.125 1.625 5.125 1 8 C-4.41139241 9.32278481 -4.41139241 9.32278481 -6.9375 7.9375 C-8.52666796 5.03960549 -7.87523205 3.09697496 -7 0 C-4.29393021 -1.35303489 -2.8671629 -0.7884698 0 0 Z " fill="#0E1E35" transform="translate(527,212)"/>
<path d="M0 0 C0.66 0.66 1.32 1.32 2 2 C1.625 5.125 1.625 5.125 1 8 C-4.41139241 9.32278481 -4.41139241 9.32278481 -6.9375 7.9375 C-8.52666796 5.03960549 -7.87523205 3.09697496 -7 0 C-4.29393021 -1.35303489 -2.8671629 -0.7884698 0 0 Z " fill="#112139" transform="translate(489,212)"/>
<path d="M0 0 C0.78375 0.04125 1.5675 0.0825 2.375 0.125 C3.96038318 2.64296153 4.4123656 3.80365586 4.0625 6.8125 C3.375 9.125 3.375 9.125 2.375 10.125 C-0.0625 10.3125 -0.0625 10.3125 -2.625 10.125 C-4.625 8.125 -4.625 8.125 -4.875 5.125 C-4.55416156 1.2749387 -3.94115238 0.18767392 0 0 Z " fill="#2A3851" transform="translate(385.625,240.875)"/>
<path d="M0 0 C0.33 0.99 0.66 1.98 1 3 C1.66 3.33 2.32 3.66 3 4 C2.34 4 1.68 4 1 4 C1 6.64 1 9.28 1 12 C-0.98 12.33 -2.96 12.66 -5 13 C-5.33 10.69 -5.66 8.38 -6 6 C-7.32 6 -8.64 6 -10 6 C-10.33 8.31 -10.66 10.62 -11 13 C-11.33 13 -11.66 13 -12 13 C-12 9.7 -12 6.4 -12 3 C-8 3 -4 3 0 3 C0 2.01 0 1.02 0 0 Z " fill="#3E4F68" transform="translate(533,238)"/>
<path d="M0 0 C0.99 0 1.98 0 3 0 C3 2.31 3 4.62 3 7 C3.66 7 4.32 7 5 7 C4.814375 8.2375 4.62875 9.475 4.4375 10.75 C4.05288777 13.76279577 3.9125406 16.10010827 5 19 C4.34 19 3.68 19 3 19 C3 19.66 3 20.32 3 21 C2.01 21 1.02 21 0 21 C0 14.07 0 7.14 0 0 Z " fill="#A4C2D8" transform="translate(536,203)"/>
<path d="M0 0 C1.98 0 3.96 0 6 0 C6 0.66 6 1.32 6 2 C5.01 2 4.02 2 3 2 C3 7.28 3 12.56 3 18 C4.32 18 5.64 18 7 18 C7 18.66 7 19.32 7 20 C4.69 20 2.38 20 0 20 C0 13.4 0 6.8 0 0 Z " fill="#A7C4D9" transform="translate(429,204)"/>
<path d="M0 0 C0.99 0 1.98 0 3 0 C3 5.28 3 10.56 3 16 C1.68 15.67 0.36 15.34 -1 15 C-3.33300933 14.96111651 -5.66709801 14.9551365 -8 15 C-8.33 14.34 -8.66 13.68 -9 13 C-6.36 12.67 -3.72 12.34 -1 12 C-1.01160156 11.30132812 -1.02320313 10.60265625 -1.03515625 9.8828125 C-1.04417969 8.97273437 -1.05320312 8.06265625 -1.0625 7.125 C-1.07410156 6.22007812 -1.08570313 5.31515625 -1.09765625 4.3828125 C-1 2 -1 2 0 0 Z " fill="#A5C3D7" transform="translate(491,208)"/>
<path d="M0 0 C2.375 -0.125 2.375 -0.125 5 0 C5.66 0.66 6.32 1.32 7 2 C6.42307692 8.57692308 6.42307692 8.57692308 5 10 C2.5625 10.25 2.5625 10.25 0 10 C-2 7 -2 7 -1.6875 4.4375 C-1 2 -1 2 0 0 Z " fill="#23324B" transform="translate(312,241)"/>
<path d="M0 0 C1.98 0 3.96 0 6 0 C6.66 0.66 7.32 1.32 8 2 C7.625 4.4375 7.625 4.4375 7 7 C6.84188612 10.05270463 6.84188612 10.05270463 8 13 C7.34 13 6.68 13 6 13 C5.34 11.35 4.68 9.7 4 8 C3.01 8 2.02 8 1 8 C1 9.65 1 11.3 1 13 C0.67 13 0.34 13 0 13 C0 8.71 0 4.42 0 0 Z " fill="#5D6E87" transform="translate(254,238)"/>
<path d="M0 0 C0.99 0 1.98 0 3 0 C3 5.28 3 10.56 3 16 C2.01 16 1.02 16 0 16 C0 15.34 0 14.68 0 14 C-0.99 14.495 -0.99 14.495 -2 15 C-3.99960012 15.039992 -6.00047242 15.04346799 -8 15 C-7.67 14.34 -7.34 13.68 -7 13 C-3.9375 12.375 -3.9375 12.375 -1 12 C-1.020625 10.7625 -1.04125 9.525 -1.0625 8.25 C-1.06766681 5.3359175 -0.93015558 2.79046673 0 0 Z " fill="#A3C1D6" transform="translate(529,208)"/>
<path d="M0 0 C0.53625 0.28875 1.0725 0.5775 1.625 0.875 C11.23729391 5.42819185 21.7026302 4.96673367 32 3 C32 3.66 32 4.32 32 5 C28.00695532 7.70879518 23.7613666 7.33122523 19.125 7.3125 C18.33480469 7.32861328 17.54460937 7.34472656 16.73046875 7.36132812 C11.69383642 7.36551833 8.43192984 6.61886764 4 4 C1.76474965 3.31363375 1.76474965 3.31363375 0 3 C0 2.01 0 1.02 0 0 Z " fill="#003742" transform="translate(267,194)"/>
<path d="M0 0 C4.62 0 9.24 0 14 0 C15.43088528 2.86177057 14.59991697 4.93375773 14 8 C13.67 6.68 13.34 5.36 13 4 C8.71 4 4.42 4 0 4 C0 2.68 0 1.36 0 0 Z " fill="#04C3B5" transform="translate(386,180)"/>
<path d="M0 0 C0 3.38928559 -0.58766616 4.20729197 -2.4375 6.9375 C-6.01774846 12.23137166 -6.18178094 16.68615516 -6.1875 23 C-6.19974609 23.7115625 -6.21199219 24.423125 -6.22460938 25.15625 C-6.2351828 28.934487 -6.11035168 31.79693658 -4 35 C-4.99 35 -5.98 35 -7 35 C-9.91794001 26.79329372 -10.13614772 18.36407408 -7.06640625 10.1484375 C-5.20437123 6.39708489 -2.68846593 3.19309707 0 0 Z " fill="#25BDB5" transform="translate(264,145)"/>
<path d="M0 0 C0.66 0 1.32 0 2 0 C2.67057887 1.7902061 3.3363469 3.58221489 4 5.375 C4.556875 6.87160156 4.556875 6.87160156 5.125 8.3984375 C6 11 6 11 6 13 C5.34 13 4.68 13 4 13 C4 12.01 4 11.02 4 10 C2.02 10 0.04 10 -2 10 C-2.33 10.99 -2.66 11.98 -3 13 C-4.23593891 9.29218328 -3.5678132 8.32489747 -2.0625 4.8125 C-1.68222656 3.91144531 -1.30195313 3.01039063 -0.91015625 2.08203125 C-0.60980469 1.39496094 -0.30945313 0.70789063 0 0 Z " fill="#41536C" transform="translate(362,238)"/>
<path d="M0 0 C0.33 0.99 0.66 1.98 1 3 C1.66 3.33 2.32 3.66 3 4 C2.34 4 1.68 4 1 4 C1 6.31 1 8.62 1 11 C1.5775 10.814375 2.155 10.62875 2.75 10.4375 C5.20692525 9.95976454 6.64397534 10.24270636 9 11 C7.35 9.68 5.7 8.36 4 7 C4.33 5.68 4.66 4.36 5 3 C7.97 3.495 7.97 3.495 11 4 C10.67 4.66 10.34 5.32 10 6 C9.01 5.67 8.02 5.34 7 5 C7.680625 5.5775 8.36125 6.155 9.0625 6.75 C9.701875 7.4925 10.34125 8.235 11 9 C10.62109375 11.140625 10.62109375 11.140625 10 13 C8.52093108 13.02689216 7.04172517 13.04634621 5.5625 13.0625 C4.32693359 13.07990234 4.32693359 13.07990234 3.06640625 13.09765625 C1 13 1 13 0 12 C-0.14115161 9.32941149 -0.04247107 6.67567762 0 4 C-0.66 3.67 -1.32 3.34 -2 3 C-1.34 3 -0.68 3 0 3 C0 2.01 0 1.02 0 0 Z " fill="#566780" transform="translate(677,238)"/>
<path d="M0 0 C11.22 0 22.44 0 34 0 C34 0.33 34 0.66 34 1 C33.28344238 1.02505615 32.56688477 1.0501123 31.82861328 1.07592773 C28.59388486 1.19169751 25.35946159 1.31450969 22.125 1.4375 C20.99707031 1.47681641 19.86914062 1.51613281 18.70703125 1.55664062 C17.63066406 1.59853516 16.55429687 1.64042969 15.4453125 1.68359375 C13.95281982 1.73858032 13.95281982 1.73858032 12.43017578 1.79467773 C9.99220499 1.84959532 9.99220499 1.84959532 8 3 C6.86649466 5.01669827 6.86649466 5.01669827 6 7 C5.01 6.67 4.02 6.34 3 6 C3.33 5.01 3.66 4.02 4 3 C2.68 2.67 1.36 2.34 0 2 C0 1.34 0 0.68 0 0 Z " fill="#00333C" transform="translate(385,199)"/>
<path d="M0 0 C6 0 6 0 8 1 C8.042721 2.66611905 8.04063832 4.33382885 8 6 C7 7 7 7 3.9375 7.0625 C2.968125 7.041875 1.99875 7.02125 1 7 C1 8.98 1 10.96 1 13 C0.67 13 0.34 13 0 13 C0 8.71 0 4.42 0 0 Z " fill="#5C6E86" transform="translate(459,238)"/>
<path d="M0 0 C1.4540625 0.0309375 1.4540625 0.0309375 2.9375 0.0625 C3.5625 2.375 3.5625 2.375 3.9375 5.0625 C1.9375 8.0625 1.9375 8.0625 -1.1875 8.75 C-2.13625 8.853125 -3.085 8.95625 -4.0625 9.0625 C-4.16015625 2.91015625 -4.16015625 2.91015625 -4.0625 1.0625 C-3.0625 0.0625 -3.0625 0.0625 0 0 Z " fill="#13223C" transform="translate(485.0625,242.9375)"/>
<path d="M0 0 C2.64 0.33 5.28 0.66 8 1 C7.0409375 1.6496875 7.0409375 1.6496875 6.0625 2.3125 C2.8898832 6.44651583 3.17530972 10.91601822 3 16 C2.01 16 1.02 16 0 16 C0 10.72 0 5.44 0 0 Z " fill="#A7C2D8" transform="translate(323,208)"/>
<path d="M0 0 C2.31 0.33 4.62 0.66 7 1 C6.51917969 1.54140625 6.03835938 2.0828125 5.54296875 2.640625 C3.68676442 5.47897288 3.51262344 7.38792626 3.3125 10.75 C3.24675781 11.73484375 3.18101562 12.7196875 3.11328125 13.734375 C3.07589844 14.48203125 3.03851563 15.2296875 3 16 C2.01 16 1.02 16 0 16 C0 10.72 0 5.44 0 0 Z " fill="#A5C3D8" transform="translate(294,208)"/>
<path d="M0 0 C0.99 0 1.98 0 3 0 C3 5.28 3 10.56 3 16 C0.69 15.67 -1.62 15.34 -4 15 C-3.27876953 14.18789062 -3.27876953 14.18789062 -2.54296875 13.359375 C-0.68676442 10.52102712 -0.51262344 8.61207374 -0.3125 5.25 C-0.21388672 3.77273437 -0.21388672 3.77273437 -0.11328125 2.265625 C-0.07589844 1.51796875 -0.03851563 0.7703125 0 0 Z " fill="#A3C2D6" transform="translate(363,208)"/>
<path d="M0 0 C3.45185037 2.66733892 3.91460256 5.9179618 5 10 C2.43571485 10.13559675 -0.12135216 10.23433188 -2.6875 10.3125 C-3.40873047 10.35439453 -4.12996094 10.39628906 -4.87304688 10.43945312 C-9.09649312 10.53587884 -10.53826981 10.37389777 -13.95703125 7.60546875 C-16 5 -16 5 -17 3 C-12.125 4.75 -12.125 4.75 -11 7 C-7.95418731 7.46954261 -7.95418731 7.46954261 -4.4375 7.625 C-3.23996094 7.69976562 -2.04242188 7.77453125 -0.80859375 7.8515625 C0.11824219 7.90054688 1.04507812 7.94953125 2 8 C1.34 5.36 0.68 2.72 0 0 Z " fill="#2DBAB3" transform="translate(309,149)"/>
<path d="M0 0 C2.12920281 2.12920281 2.51084284 3.10230433 3.25 5.9375 C3.44078125 6.62714844 3.6315625 7.31679687 3.828125 8.02734375 C4 10 4 10 2 13 C-1.125 13.6875 -1.125 13.6875 -4 14 C-3.52372025 12.04096255 -3.04388577 10.08278903 -2.5625 8.125 C-2.29566406 7.03445312 -2.02882813 5.94390625 -1.75390625 4.8203125 C-1 2 -1 2 0 0 Z " fill="#1C2131" transform="translate(337,67)"/>
<path d="M0 0 C0.99 0.33 1.98 0.66 3 1 C2.38511719 1.85271484 2.38511719 1.85271484 1.7578125 2.72265625 C-5.46668496 13.07546481 -6.17332754 22.7750326 -4 35 C-4.99 34.67 -5.98 34.34 -7 34 C-7.05449228 31.16640156 -7.09390733 28.33387515 -7.125 25.5 C-7.14175781 24.70851562 -7.15851563 23.91703125 -7.17578125 23.1015625 C-7.23406241 15.99126048 -6.47476176 9.54175417 -2.375 3.5 C-1.92898438 2.8296875 -1.48296875 2.159375 -1.0234375 1.46875 C-0.68570312 0.9840625 -0.34796875 0.499375 0 0 Z " fill="#013640" transform="translate(261,145)"/>
<path d="M0 0 C2.5 0.25 2.5 0.25 4.5 2.25 C4.5 3.24 4.5 4.23 4.5 5.25 C1.86 5.25 -0.78 5.25 -3.5 5.25 C-2.51 6.735 -2.51 6.735 -1.5 8.25 C0.48 7.92 2.46 7.59 4.5 7.25 C3.51 8.735 3.51 8.735 2.5 10.25 C0 10.5625 0 10.5625 -2.5 10.25 C-4.5 8.25 -4.5 8.25 -4.75 5.25 C-4.43608753 1.48305032 -3.83691092 0.38369109 0 0 Z " fill="#42536C" transform="translate(559.5,240.75)"/>
<path d="M0 0 C2.5 0.25 2.5 0.25 4.5 2.25 C4.5 3.24 4.5 4.23 4.5 5.25 C1.86 5.25 -0.78 5.25 -3.5 5.25 C-2.51 6.735 -2.51 6.735 -1.5 8.25 C0.48 7.92 2.46 7.59 4.5 7.25 C3.51 8.735 3.51 8.735 2.5 10.25 C0 10.5625 0 10.5625 -2.5 10.25 C-4.5 8.25 -4.5 8.25 -4.75 5.25 C-4.43608753 1.48305032 -3.83691092 0.38369109 0 0 Z " fill="#42536C" transform="translate(446.5,240.75)"/>
<path d="M0 0 C0.99 0 1.98 0 3 0 C3 5.28 3 10.56 3 16 C2.01 16 1.02 16 0 16 C-1.06384343 10.54780241 -1.78141946 5.34425837 0 0 Z " fill="#A4C4D9" transform="translate(461,208)"/>
<path d="M0 0 C2.5 0.25 2.5 0.25 4.5 2.25 C4.5 3.24 4.5 4.23 4.5 5.25 C1.86 5.25 -0.78 5.25 -3.5 5.25 C-2.51 6.735 -2.51 6.735 -1.5 8.25 C0.15 7.92 1.8 7.59 3.5 7.25 C3.17 8.24 2.84 9.23 2.5 10.25 C0.125 10.375 0.125 10.375 -2.5 10.25 C-4.5 8.25 -4.5 8.25 -4.75 5.25 C-4.43608753 1.48305032 -3.83691092 0.38369109 0 0 Z " fill="#42536D" transform="translate(656.5,240.75)"/>
<path d="M0 0 C2.5 0.25 2.5 0.25 4.5 2.25 C4.5 3.24 4.5 4.23 4.5 5.25 C1.86 5.25 -0.78 5.25 -3.5 5.25 C-2.51 6.735 -2.51 6.735 -1.5 8.25 C0.15 7.92 1.8 7.59 3.5 7.25 C3.17 8.24 2.84 9.23 2.5 10.25 C0.125 10.375 0.125 10.375 -2.5 10.25 C-4.5 8.25 -4.5 8.25 -4.75 5.25 C-4.43608753 1.48305032 -3.83691092 0.38369109 0 0 Z " fill="#42546D" transform="translate(542.5,240.75)"/>
<path d="M0 0 C2.5 0.25 2.5 0.25 4.5 2.25 C4.5 3.24 4.5 4.23 4.5 5.25 C1.86 5.25 -0.78 5.25 -3.5 5.25 C-2.51 6.735 -2.51 6.735 -1.5 8.25 C0.15 7.92 1.8 7.59 3.5 7.25 C3.17 8.24 2.84 9.23 2.5 10.25 C0.125 10.375 0.125 10.375 -2.5 10.25 C-4.5 8.25 -4.5 8.25 -4.75 5.25 C-4.43608753 1.48305032 -3.83691092 0.38369109 0 0 Z " fill="#42536D" transform="translate(396.5,240.75)"/>
<path d="M0 0 C2.5 0.25 2.5 0.25 4.5 2.25 C4.5 3.24 4.5 4.23 4.5 5.25 C1.86 5.25 -0.78 5.25 -3.5 5.25 C-2.51 6.735 -2.51 6.735 -1.5 8.25 C0.15 7.92 1.8 7.59 3.5 7.25 C3.17 8.24 2.84 9.23 2.5 10.25 C0.125 10.375 0.125 10.375 -2.5 10.25 C-4.5 8.25 -4.5 8.25 -4.75 5.25 C-4.43608753 1.48305032 -3.83691092 0.38369109 0 0 Z " fill="#42536C" transform="translate(328.5,240.75)"/>
<path d="M0 0 C2.5 0.25 2.5 0.25 4.5 2.25 C4.5 3.24 4.5 4.23 4.5 5.25 C1.86 5.25 -0.78 5.25 -3.5 5.25 C-2.51 6.735 -2.51 6.735 -1.5 8.25 C0.15 7.92 1.8 7.59 3.5 7.25 C3.17 8.24 2.84 9.23 2.5 10.25 C0.125 10.375 0.125 10.375 -2.5 10.25 C-4.5 8.25 -4.5 8.25 -4.75 5.25 C-4.43608753 1.48305032 -3.83691092 0.38369109 0 0 Z " fill="#41536D" transform="translate(268.5,240.75)"/>
<path d="M0 0 C5.61 0 11.22 0 17 0 C16.67 0.99 16.34 1.98 16 3 C10.39 3 4.78 3 -1 3 C-0.67 2.01 -0.34 1.02 0 0 Z " fill="#02C3B2" transform="translate(295,181)"/>
<path d="M0 0 C2.625 0.375 2.625 0.375 5 1 C5.33 2.65 5.66 4.3 6 6 C3 8 3 8 0.8125 7.625 C0.214375 7.41875 -0.38375 7.2125 -1 7 C-1.625 4.625 -1.625 4.625 -2 2 C-1.34 1.34 -0.68 0.68 0 0 Z " fill="#0E1D36" transform="translate(298,242)"/>
<path d="M0 0 C0.99 0 1.98 0 3 0 C3.9360342 3.79267192 3.98276252 6.93674565 3.5625 10.8125 C3.40974609 12.27623047 3.40974609 12.27623047 3.25390625 13.76953125 C3.17011719 14.50558594 3.08632813 15.24164063 3 16 C2.01 16 1.02 16 0 16 C0 10.72 0 5.44 0 0 Z " fill="#A8C3D7" transform="translate(370,208)"/>
<path d="M0 0 C0.99386719 0.02707031 1.98773438 0.05414063 3.01171875 0.08203125 C4.15060547 0.13423828 4.15060547 0.13423828 5.3125 0.1875 C5.3125 1.5075 5.3125 2.8275 5.3125 4.1875 C3.93964844 4.26097656 3.93964844 4.26097656 2.5390625 4.3359375 C1.35054688 4.41070312 0.16203125 4.48546875 -1.0625 4.5625 C-2.83753906 4.66691406 -2.83753906 4.66691406 -4.6484375 4.7734375 C-7.79312319 4.88967346 -7.79312319 4.88967346 -9.6875 7.1875 C-8.63991038 1.11148022 -5.96528596 -0.2105395 0 0 Z " fill="#1BB7AD" transform="translate(380.6875,179.8125)"/>
<path d="M0 0 C1.65 0 3.3 0 5 0 C5.9097643 3.07045451 6.17299981 5.79950343 6 9 C5 10 5 10 2.4375 10.0625 C1.633125 10.041875 0.82875 10.02125 0 10 C0 9.01 0 8.02 0 7 C1.98 7.495 1.98 7.495 4 8 C2.35 6.68 0.7 5.36 -1 4 C-0.67 2.68 -0.34 1.36 0 0 Z " fill="#3B4C65" transform="translate(567,241)"/>
<path d="M0 0 C0.33 0 0.66 0 1 0 C2.03405665 4.2654837 2 7.37316973 2 12 C9.26 12.33 16.52 12.66 24 13 C24 13.33 24 13.66 24 14 C20.18751574 14.02887236 16.3750593 14.04675492 12.5625 14.0625 C11.47388672 14.07087891 10.38527344 14.07925781 9.26367188 14.08789062 C8.22919922 14.09111328 7.19472656 14.09433594 6.12890625 14.09765625 C4.69140015 14.10551147 4.69140015 14.10551147 3.22485352 14.11352539 C1 14 1 14 0 13 C-0.07258946 10.81360547 -0.08373783 8.62499611 -0.0625 6.4375 C-0.05347656 5.23996094 -0.04445313 4.04242188 -0.03515625 2.80859375 C-0.02355469 1.88175781 -0.01195312 0.95492187 0 0 Z " fill="#19D1C1" transform="translate(324,184)"/>
<path d="M0 0 C3.44246272 1.83646024 5.77641365 3.4636862 6.9921875 7.24609375 C4.5546875 6.43359375 4.5546875 6.43359375 1.9921875 5.24609375 C1.6621875 4.25609375 1.3321875 3.26609375 0.9921875 2.24609375 C-7.69705832 1.92932532 -7.69705832 1.92932532 -16.0078125 4.24609375 C-12.21923885 -1.3465626 -6.27579612 -2.35647598 0 0 Z " fill="#00333F" transform="translate(291.0078125,151.75390625)"/>
<path d="M0 0 C0.99 0 1.98 0 3 0 C3 5.28 3 10.56 3 16 C2.01 16 1.02 16 0 16 C0 10.72 0 5.44 0 0 Z " fill="#A8C4D8" transform="translate(389,208)"/>
<path d="M0 0 C1.39412109 -0.02126953 1.39412109 -0.02126953 2.81640625 -0.04296875 C5.51238389 0.19408443 7.13157875 0.81479864 9.4375 2.1875 C7.57544922 2.24357422 7.57544922 2.24357422 5.67578125 2.30078125 C4.03382489 2.3664595 2.39189913 2.4329062 0.75 2.5 C-0.47493164 2.53383789 -0.47493164 2.53383789 -1.72460938 2.56835938 C-6.55333585 2.78340387 -9.49924899 3.35553717 -13.5625 6.1875 C-15.875 5.875 -15.875 5.875 -17.5625 5.1875 C-11.54509419 1.52986117 -7.1272998 0.04956398 0 0 Z " fill="#26BCB4" transform="translate(285.5625,136.8125)"/>
<path d="M0 0 C3.29279709 0.31865778 4.86535088 1.54515351 7 4 C5.25 6.0625 5.25 6.0625 3 8 C0.75 7.75 0.75 7.75 -1 7 C-1.625 4.625 -1.625 4.625 -2 2 C-1.34 1.34 -0.68 0.68 0 0 Z " fill="#0C1932" transform="translate(614,242)"/>
<path d="M0 0 C0 0.99 0 1.98 0 3 C-2.64 3 -5.28 3 -8 3 C-8.66 4.98 -9.32 6.96 -10 9 C-10.33 9 -10.66 9 -11 9 C-11.48176187 2.6166552 -11.48176187 2.6166552 -9.4375 0 C-6.03627009 -1.39537637 -3.5344893 -0.74768043 0 0 Z " fill="#A1BCD2" transform="translate(460,209)"/>
<path d="M0 0 C0.33 0 0.66 0 1 0 C1.33 1.65 1.66 3.3 2 5 C2.33 4.34 2.66 3.68 3 3 C3.66 3 4.32 3 5 3 C5 6.3 5 9.6 5 13 C3.35 13 1.7 13 0 13 C0 8.71 0 4.42 0 0 Z " fill="#3E506A" transform="translate(492,238)"/>
<path d="M0 0 C0.99 0.33 1.98 0.66 3 1 C3 4.3 3 7.6 3 11 C2.01 11 1.02 11 0 11 C-0.0825 10.401875 -0.165 9.80375 -0.25 9.1875 C-1.20455872 6.4033704 -2.57132271 5.56688858 -5 4 C-4.0409375 3.8453125 -4.0409375 3.8453125 -3.0625 3.6875 C-2.381875 3.460625 -1.70125 3.23375 -1 3 C-0.67 2.01 -0.34 1.02 0 0 Z " fill="#22334D" transform="translate(419,240)"/>
<path d="M0 0 C0.66 0 1.32 0 2 0 C2 0.66 2 1.32 2 2 C6.62 1.67 11.24 1.34 16 1 C16.33 1.66 16.66 2.32 17 3 C14.0384304 4.4807848 11.16493705 4.35314037 7.875 4.5625 C6.59367187 4.64628906 5.31234375 4.73007813 3.9921875 4.81640625 C3.00476563 4.87699219 2.01734375 4.93757812 1 5 C0.67 3.35 0.34 1.7 0 0 Z " fill="#15C6B8" transform="translate(336,184)"/>
<path d="M0 0 C0.99 0 1.98 0 3 0 C3 4.29 3 8.58 3 13 C2.01 13 1.02 13 0 13 C0 8.71 0 4.42 0 0 Z " fill="#A5C2D6" transform="translate(345,211)"/>
<path d="M0 0 C3.63 0 7.26 0 11 0 C11 4.95 11 9.9 11 15 C10.67 15 10.34 15 10 15 C9.87625 13.88625 9.7525 12.7725 9.625 11.625 C9.3534187 7.96896323 9.3534187 7.96896323 7 6 C7.66 4.68 8.32 3.36 9 2 C5.7 2 2.4 2 -1 2 C-0.67 1.34 -0.34 0.68 0 0 Z " fill="#032E3A" transform="translate(312,184)"/>
<path d="M0 0 C2.97 0.495 2.97 0.495 6 1 C6 1.66 6 2.32 6 3 C4.68 3 3.36 3 2 3 C3.32 3.99 4.64 4.98 6 6 C5.67 7.32 5.34 8.64 5 10 C3.35 10 1.7 10 0 10 C0 9.01 0 8.02 0 7 C1.98 7.495 1.98 7.495 4 8 C2.35 6.68 0.7 5.36 -1 4 C-0.67 2.68 -0.34 1.36 0 0 Z " fill="#50617B" transform="translate(287,241)"/>
<path d="M0 0 C0.66 0.33 1.32 0.66 2 1 C2.12375 1.639375 2.2475 2.27875 2.375 2.9375 C2.80939427 5.19851273 2.80939427 5.19851273 5.0625 6.25 C5.701875 6.4975 6.34125 6.745 7 7 C6.67 7.66 6.34 8.32 6 9 C3.36 8.67 0.72 8.34 -2 8 C-2 5.69 -2 3.38 -2 1 C-1.34 0.67 -0.68 0.34 0 0 Z " fill="#0A1A33" transform="translate(680,241)"/>
<path d="M0 0 C2.97 0.495 2.97 0.495 6 1 C5.67 1.66 5.34 2.32 5 3 C4.01 3 3.02 3 2 3 C3.32 3.99 4.64 4.98 6 6 C5.67 7.32 5.34 8.64 5 10 C3.35 10 1.7 10 0 10 C0 9.01 0 8.02 0 7 C1.32 7.66 2.64 8.32 4 9 C4 8.01 4 7.02 4 6 C1.525 5.01 1.525 5.01 -1 4 C-0.67 2.68 -0.34 1.36 0 0 Z " fill="#50627B" transform="translate(413,241)"/>
<path d="M0 0 C0.66 0 1.32 0 2 0 C2.66 0.99 3.32 1.98 4 3 C6.05003955 4.19232613 6.05003955 4.19232613 8 5 C7.67 5.66 7.34 6.32 7 7 C5.68 6.67 4.36 6.34 3 6 C3 6.99 3 7.98 3 9 C2.01 9.33 1.02 9.66 0 10 C0 6.7 0 3.4 0 0 Z " fill="#0B1B35" transform="translate(284,243)"/>
<path d="M0 0 C0.33 0 0.66 0 1 0 C1.33 4.62 1.66 9.24 2 14 C1.34 14 0.68 14 0 14 C0 9.38 0 4.76 0 0 Z M2 7 C3.65 7 5.3 7 7 7 C6.01 8.98 5.02 10.96 4 13 C3.34 13 2.68 13 2 13 C2 11.02 2 9.04 2 7 Z " fill="#101F38" transform="translate(458,238)"/>
<path d="M0 0 C5.28 0 10.56 0 16 0 C13.26267602 2.73732398 11.39491957 2.97127858 7.5625 3.25 C4 3 4 3 0 0 Z " fill="#00454B" transform="translate(277,184)"/>
<path d="M0 0 C0.33 1.98 0.66 3.96 1 6 C0.4225 5.505 -0.155 5.01 -0.75 4.5 C-3.10400629 2.63019987 -3.10400629 2.63019987 -7 3 C-7.66 3.99 -8.32 4.98 -9 6 C-8.625 3.0625 -8.625 3.0625 -8 0 C-5.13822943 -1.43088528 -3.06624227 -0.59991697 0 0 Z " fill="#172B43" transform="translate(460,212)"/>
<path d="M0 0 C1.32 0 2.64 0 4 0 C3.91433603 2.912575 3.42089045 4.56798024 1.375 6.66796875 C-0.38391375 8.16091772 -2.16313019 9.60436262 -4 11 C-4.33 10.34 -4.66 9.68 -5 9 C-4.34 9 -3.68 9 -3 9 C-2.67 7.68 -2.34 6.36 -2 5 C-1.01 5 -0.02 5 1 5 C0.34 3.68 -0.32 2.36 -1 1 C-0.67 0.67 -0.34 0.34 0 0 Z " fill="#19CBBF" transform="translate(367,184)"/>
<path d="M0 0 C0.99 0.33 1.98 0.66 3 1 C3.02895976 4.12498063 3.04678483 7.2499269 3.0625 10.375 C3.07087891 11.26445312 3.07925781 12.15390625 3.08789062 13.0703125 C3.09111328 13.92109375 3.09433594 14.771875 3.09765625 15.6484375 C3.10289307 16.43395996 3.10812988 17.21948242 3.11352539 18.02880859 C3 20 3 20 2 22 C1.34 22 0.68 22 0 22 C0.165 21.2575 0.33 20.515 0.5 19.75 C1.35800377 13.31497175 1.89503862 6.28671542 0 0 Z " fill="#23C5BB" transform="translate(360,158)"/>
<path d="M0 0 C1.98 0 3.96 0 6 0 C6 0.66 6 1.32 6 2 C4.68 2 3.36 2 2 2 C2 4.31 2 6.62 2 9 C1.01 9.495 1.01 9.495 0 10 C0 9.34 0 8.68 0 8 C-1.32 7.67 -2.64 7.34 -4 7 C-2.68 6.67 -1.36 6.34 0 6 C0 4.02 0 2.04 0 0 Z " fill="#39A7A7" transform="translate(99,52)"/>
<path d="M0 0 C0.66 0.33 1.32 0.66 2 1 C2.125 4.375 2.125 4.375 2 8 C1.34 8.66 0.68 9.32 0 10 C-0.99 10 -1.98 10 -3 10 C-2.49287967 6.28111761 -1.88391785 3.26545761 0 0 Z " fill="#161D2B" transform="translate(285,66)"/>
<path d="M0 0 C0.33 0 0.66 0 1 0 C1.46707789 4.01686987 1.32150834 5.56501812 -1.125 8.875 C-4.43498188 11.32150834 -5.98313013 11.46707789 -10 11 C-10 10.67 -10 10.34 -10 10 C-8.35 10 -6.7 10 -5 10 C-5 9.01 -5 8.02 -5 7 C-4.34 7 -3.68 7 -3 7 C-2.67 6.01 -2.34 5.02 -2 4 C-1.34 4 -0.68 4 0 4 C0 2.68 0 1.36 0 0 Z " fill="#94AFC5" transform="translate(290,213)"/>
<path d="M0 0 C0.33 1.32 0.66 2.64 1 4 C0.01 4.495 0.01 4.495 -1 5 C-1 5.66 -1 6.32 -1 7 C-6.45769231 10.10096154 -6.45769231 10.10096154 -9.203125 9.58984375 C-9.79609375 9.39519531 -10.3890625 9.20054687 -11 9 C-10.37351562 8.60167969 -9.74703125 8.20335937 -9.1015625 7.79296875 C-8.28429687 7.26316406 -7.46703125 6.73335937 -6.625 6.1875 C-5.81289063 5.66542969 -5.00078125 5.14335937 -4.1640625 4.60546875 C-1.76649759 3.01562803 -1.76649759 3.01562803 0 0 Z " fill="#012C39" transform="translate(310,187)"/>
<path d="M0 0 C0.66 0 1.32 0 2 0 C2 1.98 2 3.96 2 6 C0.02 6 -1.96 6 -4 6 C-4 7.65 -4 9.3 -4 11 C-4.66 11 -5.32 11 -6 11 C-6 9.02 -6 7.04 -6 5 C-4.02 4.67 -2.04 4.34 0 4 C0 2.68 0 1.36 0 0 Z " fill="#37A8A5" transform="translate(202,171)"/>
<path d="M0 0 C0.33 0.66 0.66 1.32 1 2 C0.33613281 1.96519531 -0.32773437 1.93039063 -1.01171875 1.89453125 C-7.98953361 1.67958092 -7.98953361 1.67958092 -14 5 C-14.763125 5.556875 -15.52625 6.11375 -16.3125 6.6875 C-16.869375 7.120625 -17.42625 7.55375 -18 8 C-17.9375 5.6875 -17.9375 5.6875 -17 3 C-11.46169323 -0.41725311 -6.37578767 -0.34637076 0 0 Z " fill="#25BBB2" transform="translate(290,150)"/>
<path d="M0 0 C0.433125 0.598125 0.86625 1.19625 1.3125 1.8125 C2.90681105 3.98975883 2.90681105 3.98975883 4.6875 5.625 C6 7 6 7 6 9 C7.32 9.66 8.64 10.32 10 11 C7.25 11.3125 7.25 11.3125 4 11 C0.94338095 8.26513033 0.06025422 6.79836847 -0.25 2.6875 C-0.1675 1.800625 -0.085 0.91375 0 0 Z " fill="#91ACC2" transform="translate(516,213)"/>
<path d="M0 0 C0.99 0.33 1.98 0.66 3 1 C3 4.3 3 7.6 3 11 C2.01 11 1.02 11 0 11 C0 7.37 0 3.74 0 0 Z " fill="#A7C4D8" transform="translate(305,213)"/>
<path d="M0 0 C3.96 0 7.92 0 12 0 C12 4.95 12 9.9 12 15 C11.67 15 11.34 15 11 15 C11 10.38 11 5.76 11 1 C9.576875 1.144375 8.15375 1.28875 6.6875 1.4375 C5.88699219 1.51871094 5.08648437 1.59992188 4.26171875 1.68359375 C1.83912821 1.95265693 1.83912821 1.95265693 -1 3 C-0.67 2.01 -0.34 1.02 0 0 Z " fill="#00303A" transform="translate(373,184)"/>
<path d="M0 0 C2.475 0.495 2.475 0.495 5 1 C5 2.32 5 3.64 5 5 C3.35 5.33 1.7 5.66 0 6 C0 4.02 0 2.04 0 0 Z " fill="#091A32" transform="translate(255,239)"/>
<path d="M0 0 C0.33 0 0.66 0 1 0 C1 2.97 1 5.94 1 9 C3.475 9.99 3.475 9.99 6 11 C6 10.34 6 9.68 6 9 C6.66 9 7.32 9 8 9 C7.34 10.32 6.68 11.64 6 13 C1.125 12.125 1.125 12.125 0 11 C-0.07226502 9.14712498 -0.0838122 7.29166122 -0.0625 5.4375 C-0.05347656 4.42558594 -0.04445313 3.41367188 -0.03515625 2.37109375 C-0.02355469 1.58863281 -0.01195312 0.80617187 0 0 Z " fill="#172B41" transform="translate(355,208)"/>
<path d="M0 0 C0.0825 0.61875 0.165 1.2375 0.25 1.875 C0.81258459 4.18437567 0.81258459 4.18437567 3.0625 5.25 C3.701875 5.4975 4.34125 5.745 5 6 C5 6.99 5 7.98 5 9 C6.65 9.33 8.3 9.66 10 10 C10 10.33 10 10.66 10 11 C7.25 11.3125 7.25 11.3125 4 11 C0.94338095 8.26513033 0.06025422 6.79836847 -0.25 2.6875 C-0.1675 1.800625 -0.085 0.91375 0 0 Z " fill="#91ACC1" transform="translate(478,213)"/>
<path d="M0 0 C0.928125 0.2784375 0.928125 0.2784375 1.875 0.5625 C4.04160178 1.23686176 4.04160178 1.23686176 6 0 C5.34 2.97 4.68 5.94 4 9 C2 8 2 8 1.3671875 6.15234375 C1.20476562 5.42144531 1.04234375 4.69054687 0.875 3.9375 C0.70742188 3.20402344 0.53984375 2.47054687 0.3671875 1.71484375 C0.24601562 1.14894531 0.12484375 0.58304688 0 0 Z " fill="#0A1B33" transform="translate(409,210)"/>
<path d="M0 0 C0.33 0.66 0.66 1.32 1 2 C0.67 2.66 0.34 3.32 0 4 C-1.62490954 4.02698189 -3.24994633 4.04638757 -4.875 4.0625 C-6.23238281 4.07990234 -6.23238281 4.07990234 -7.6171875 4.09765625 C-10 4 -10 4 -12 3 C-12 2.34 -12 1.68 -12 1 C-11.07767578 1.01740234 -11.07767578 1.01740234 -10.13671875 1.03515625 C-8.92435547 1.04869141 -8.92435547 1.04869141 -7.6875 1.0625 C-6.88699219 1.07410156 -6.08648437 1.08570313 -5.26171875 1.09765625 C-2.83138666 1.09657855 -2.83138666 1.09657855 0 0 Z " fill="#19CABD" transform="translate(291,185)"/>
<path d="M0 0 C3.53372712 1.96318174 6.24479785 4.04070881 9 7 C8.67 7.66 8.34 8.32 8 9 C7.4225 8.525625 6.845 8.05125 6.25 7.5625 C4.07417916 6.0515133 2.57397552 5.45963849 0 5 C0 3.35 0 1.7 0 0 Z " fill="#1CC6B9" transform="translate(363,143)"/>
<path d="M0 0 C1.32 0 2.64 0 4 0 C4 1.32 4 2.64 4 4 C2.68 3.67 1.36 3.34 0 3 C-0.33 6.3 -0.66 9.6 -1 13 C-1.33 13 -1.66 13 -2 13 C-2.05391993 11.20866022 -2.09275571 9.41686101 -2.125 7.625 C-2.14820313 6.62726563 -2.17140625 5.62953125 -2.1953125 4.6015625 C-2 2 -2 2 0 0 Z " fill="#182C43" transform="translate(339,211)"/>
<path d="M0 0 C0.99 0 1.98 0 3 0 C3 2.97 3 5.94 3 9 C2.01 8.67 1.02 8.34 0 8 C0 5.36 0 2.72 0 0 Z " fill="#A7C4D9" transform="translate(352,208)"/>
<path d="M0 0 C3.3 0 6.6 0 10 0 C8.02 2.97 8.02 2.97 6 6 C5.01 5.67 4.02 5.34 3 5 C3.33 4.01 3.66 3.02 4 2 C2.68 1.34 1.36 0.68 0 0 Z " fill="#4C6578" transform="translate(385,200)"/>
<path d="M0 0 C2.78211944 0.37596209 4.5879284 0.67318459 6.8125 2.4375 C8 4 8 4 8 6 C5.69 5.34 3.38 4.68 1 4 C0.67 2.68 0.34 1.36 0 0 Z " fill="#012637" transform="translate(350,152)"/>
<path d="M0 0 C2.64 0 5.28 0 8 0 C7.67 0.99 7.34 1.98 7 3 C5.35 3.33 3.7 3.66 2 4 C1.34 2.68 0.68 1.36 0 0 Z " fill="#11223B" transform="translate(325,246)"/>
<path d="M0 0 C2.64 0 5.28 0 8 0 C7.67 0.99 7.34 1.98 7 3 C5.35 3.33 3.7 3.66 2 4 C1.34 2.68 0.68 1.36 0 0 Z " fill="#11223B" transform="translate(393,246)"/>
<path d="M0 0 C2.64 0 5.28 0 8 0 C7.67 0.99 7.34 1.98 7 3 C5.35 3.33 3.7 3.66 2 4 C1.34 2.68 0.68 1.36 0 0 Z " fill="#11223C" transform="translate(265,246)"/>
<path d="M0 0 C1.65 0 3.3 0 5 0 C5 1.65 5 3.3 5 5 C3.35 5 1.7 5 0 5 C0 3.35 0 1.7 0 0 Z " fill="#0B1933" transform="translate(460,239)"/>
<path d="M0 0 C1.2065625 0.0309375 1.2065625 0.0309375 2.4375 0.0625 C1.38875002 2.68437494 0.78818687 3.85621361 -1.6875 5.3125 C-2.30625 5.56 -2.925 5.8075 -3.5625 6.0625 C-3.605221 4.39638095 -3.60313832 2.72867115 -3.5625 1.0625 C-2.5625 0.0625 -2.5625 0.0625 0 0 Z " fill="#0C1A32" transform="translate(282.5625,210.9375)"/>
<path d="M0 0 C2.64 0 5.28 0 8 0 C7.67 0.99 7.34 1.98 7 3 C4.36 3 1.72 3 -1 3 C-0.67 2.01 -0.34 1.02 0 0 Z " fill="#0DBDB0" transform="translate(253,180)"/>
<path d="M0 0 C2.64 0 5.28 0 8 0 C8 0.66 8 1.32 8 2 C5 4 5 4 2.875 3.8125 C2.25625 3.544375 1.6375 3.27625 1 3 C0.67 2.01 0.34 1.02 0 0 Z " fill="#0E213A" transform="translate(443,246)"/>
<path d="M0 0 C2.64 0 5.28 0 8 0 C8 0.66 8 1.32 8 2 C5 4 5 4 2.875 3.8125 C2.25625 3.544375 1.6375 3.27625 1 3 C0.67 2.01 0.34 1.02 0 0 Z " fill="#0F203A" transform="translate(556,246)"/>
<path d="M0 0 C1.32 0.99 2.64 1.98 4 3 C3.67 3.99 3.34 4.98 3 6 C1.35 5.67 -0.3 5.34 -2 5 C-1.125 1.125 -1.125 1.125 0 0 Z " fill="#091A35" transform="translate(343,244)"/>
<path d="M0 0 C3.375 0.25 3.375 0.25 7 1 C8.4375 3.0625 8.4375 3.0625 9 5 C4.68607774 4.5206753 2.83430453 3.2542015 0 0 Z " fill="#9AB5CB" transform="translate(263,205)"/>
<path d="M0 0 C0.66 0 1.32 0 2 0 C2 1.98 2 3.96 2 6 C-0.91517292 4.92598892 -2.77810176 4.22189824 -5 2 C-4.01 1.67 -3.02 1.34 -2 1 C-1.34 1.33 -0.68 1.66 0 2 C0 1.34 0 0.68 0 0 Z " fill="#061831" transform="translate(293,242)"/>
<path d="M0 0 C1.32 0 2.64 0 4 0 C4 2.64 4 5.28 4 8 C3.34 7.67 2.68 7.34 2 7 C2 6.01 2 5.02 2 4 C1.34 4 0.68 4 0 4 C0 2.68 0 1.36 0 0 Z " fill="#2E3E57" transform="translate(620,241)"/>
<path d="M0 0 C0.33 0 0.66 0 1 0 C1 3.63 1 7.26 1 11 C-0.32 11 -1.64 11 -3 11 C-2.11223998 7.30099992 -1.05418136 3.65449539 0 0 Z " fill="#16283F" transform="translate(395,211)"/>
<path d="M0 0 C6.625 0.75 6.625 0.75 10 3 C8.25 4.125 8.25 4.125 6 5 C3.75 4.125 3.75 4.125 2 3 C2 2.34 2 1.68 2 1 C1.34 0.67 0.68 0.34 0 0 Z " fill="#92B1C5" transform="translate(521,208)"/>
<path d="M0 0 C1.98 0 3.96 0 6 0 C6 0.66 6 1.32 6 2 C4.03852126 3.38938077 2.03833424 4.7260411 0 6 C0 4.02 0 2.04 0 0 Z " fill="#002132" transform="translate(198,177)"/>
<path d="M0 0 C0.66 0 1.32 0 2 0 C1.62403791 2.78211944 1.32681541 4.5879284 -0.4375 6.8125 C-2 8 -2 8 -4 8 C-2.66666667 5.33333333 -1.33333333 2.66666667 0 0 Z " fill="#12D1C2" transform="translate(266,143)"/>
<path d="M0 0 C0.33 0 0.66 0 1 0 C1 3.3 1 6.6 1 10 C-1.31 10 -3.62 10 -6 10 C-6 9.34 -6 8.68 -6 8 C-4.35 7.67 -2.7 7.34 -1 7 C-0.67 4.69 -0.34 2.38 0 0 Z " fill="#586982" transform="translate(630,241)"/>
<path d="M0 0 C2.97 1.98 2.97 1.98 6 4 C5.67 4.66 5.34 5.32 5 6 C3.35 5.67 1.7 5.34 0 5 C-0.5625 3.0625 -0.5625 3.0625 -1 1 C-0.67 0.67 -0.34 0.34 0 0 Z " fill="#05152D" transform="translate(483,215)"/>
<path d="M0 0 C2.3431213 0.25561323 4.67843403 0.59270772 7 1 C7.33 1.66 7.66 2.32 8 3 C7.34 3 6.68 3 6 3 C5.67 3.66 5.34 4.32 5 5 C3.0625 4.1875 3.0625 4.1875 1 3 C0.67 2.01 0.34 1.02 0 0 Z " fill="#96B0C6" transform="translate(339,208)"/>
<path d="M0 0 C1.32 0.33 2.64 0.66 4 1 C4.33 2.65 4.66 4.3 5 6 C3.68 5.67 2.36 5.34 1 5 C0.67 5.66 0.34 6.32 0 7 C0 4.69 0 2.38 0 0 Z " fill="#0A1933" transform="translate(551,244)"/>
<path d="M0 0 C0.66 0 1.32 0 2 0 C2.6875 1.8125 2.6875 1.8125 3 4 C1.6875 5.75 1.6875 5.75 0 7 C-0.66 7 -1.32 7 -2 7 C-1.34 4.69 -0.68 2.38 0 0 Z " fill="#19C0B4" transform="translate(306,186)"/>
<path d="M0 0 C0 3 0 3 -2.5 5.6875 C-3.325 6.450625 -4.15 7.21375 -5 8 C-5.99 7.34 -6.98 6.68 -8 6 C-7.05125 5.38125 -6.1025 4.7625 -5.125 4.125 C-2.05554891 2.18029031 -2.05554891 2.18029031 0 0 Z " fill="#262D3A" transform="translate(499,101)"/>
<path d="M0 0 C0.4125 0.45375 0.825 0.9075 1.25 1.375 C3.06408095 3.05950374 4.75285627 3.99265971 7 5 C6.67 5.66 6.34 6.32 6 7 C4.125 6.6875 4.125 6.6875 2 6 C0 3 0 3 0 0 Z " fill="#0D1D37" transform="translate(565,243)"/>
<path d="M0 0 C1.67542976 0.28604898 3.34385343 0.61781233 5 1 C3.68 1.99 2.36 2.98 1 4 C0.34 3.67 -0.32 3.34 -1 3 C-1.33 3.99 -1.66 4.98 -2 6 C-1.125 1.125 -1.125 1.125 0 0 Z " fill="#0E2038" transform="translate(603,242)"/>
<path d="M0 0 C0.33 0.99 0.66 1.98 1 3 C1.66 3.33 2.32 3.66 3 4 C2.34 4 1.68 4 1 4 C1 6.64 1 9.28 1 12 C1.66 12.33 2.32 12.66 3 13 C2.01 13 1.02 13 0 13 C0 10.03 0 7.06 0 4 C-0.66 3.67 -1.32 3.34 -2 3 C-1.34 3 -0.68 3 0 3 C0 2.01 0 1.02 0 0 Z " fill="#667791" transform="translate(578,238)"/>
<path d="M0 0 C2.31 0.66 4.62 1.32 7 2 C7 2.66 7 3.32 7 4 C4.69 4 2.38 4 0 4 C0 2.68 0 1.36 0 0 Z " fill="#A2BED2" transform="translate(278,219)"/>
<path d="M0 0 C2.5 0.3125 2.5 0.3125 5 1 C5.33 1.66 5.66 2.32 6 3 C4.35 3.66 2.7 4.32 1 5 C0.34 3.68 -0.32 2.36 -1 1 C-0.67 0.67 -0.34 0.34 0 0 Z " fill="#071029" transform="translate(453,214)"/>
<path d="M0 0 C2.97 0.495 2.97 0.495 6 1 C5.67 1.66 5.34 2.32 5 3 C4.01 2.67 3.02 2.34 2 2 C2 2.66 2 3.32 2 4 C1.01 4 0.02 4 -1 4 C-0.67 2.68 -0.34 1.36 0 0 Z " fill="#415169" transform="translate(682,241)"/>
<path d="M0 0 C2.97 0.495 2.97 0.495 6 1 C6 1.66 6 2.32 6 3 C3.69 3.33 1.38 3.66 -1 4 C-0.67 2.68 -0.34 1.36 0 0 Z " fill="#40536C" transform="translate(287,241)"/>
<path d="M0 0 C-0.33 0.66 -0.66 1.32 -1 2 C-3.31 2 -5.62 2 -8 2 C-8.33 1.34 -8.66 0.68 -9 0 C-3.375 -1.125 -3.375 -1.125 0 0 Z " fill="#9DB9CD" transform="translate(491,221)"/>
<path d="M0 0 C0.99 0.33 1.98 0.66 3 1 C3 2.98 3 4.96 3 7 C2.34 7 1.68 7 1 7 C0.34 5.02 -0.32 3.04 -1 1 C-0.67 0.67 -0.34 0.34 0 0 Z " fill="#A0BED2" transform="translate(287,210)"/>
<path d="M0 0 C2.31 0.33 4.62 0.66 7 1 C7 1.99 7 2.98 7 4 C5.35 3.67 3.7 3.34 2 3 C2 2.34 2 1.68 2 1 C1.34 0.67 0.68 0.34 0 0 Z " fill="#96B1C6" transform="translate(453,208)"/>
<path d="M0 0 C4.95 1.98 4.95 1.98 10 4 C10 4.33 10 4.66 10 5 C6.14354879 5.22036864 3.50776784 4.60355101 0 3 C0 2.01 0 1.02 0 0 Z " fill="#013641" transform="translate(267,194)"/>
<path d="M0 0 C2.97 0.495 2.97 0.495 6 1 C6 2.98 6 4.96 6 7 C1.125 2.25 1.125 2.25 0 0 Z " fill="#002E3D" transform="translate(367,145)"/>
<path d="M0 0 C2.64 0.33 5.28 0.66 8 1 C8.66 2.65 9.32 4.3 10 6 C6.7 4.35 3.4 2.7 0 1 C0 0.67 0 0.34 0 0 Z " fill="#013742" transform="translate(295,138)"/>
<path d="M0 0 C0.33 0 0.66 0 1 0 C1 1.65 1 3.3 1 5 C1.66 5 2.32 5 3 5 C3 6.65 3 8.3 3 10 C2.01 9.67 1.02 9.34 0 9 C0 6.03 0 3.06 0 0 Z " fill="#091B34" transform="translate(439,239)"/>
<path d="M0 0 C2.97 0.495 2.97 0.495 6 1 C5.67 1.66 5.34 2.32 5 3 C1.9375 3.625 1.9375 3.625 -1 4 C-0.67 2.68 -0.34 1.36 0 0 Z " fill="#43556E" transform="translate(413,241)"/>
<path d="M0 0 C0.99 0.99 1.98 1.98 3 3 C0.64046906 5.35953094 -0.77895617 5.49141413 -4 6 C-4.33 5.34 -4.66 4.68 -5 4 C-4.360625 3.71125 -3.72125 3.4225 -3.0625 3.125 C-0.84793921 2.17176549 -0.84793921 2.17176549 0 0 Z " fill="#0F2138" transform="translate(271,219)"/>
<path d="M0 0 C2.375 -0.125 2.375 -0.125 5 0 C5.66 0.66 6.32 1.32 7 2 C6.67 2.99 6.34 3.98 6 5 C4.68 4.34 3.36 3.68 2 3 C2 2.34 2 1.68 2 1 C1.34 0.67 0.68 0.34 0 0 Z " fill="#94AFC4" transform="translate(483,208)"/>
<path d="M0 0 C0.99 0.66 1.98 1.32 3 2 C2.67 2.99 2.34 3.98 2 5 C-0.31 5 -2.62 5 -5 5 C-4.360625 4.731875 -3.72125 4.46375 -3.0625 4.1875 C-0.66868314 3.11332248 -0.66868314 3.11332248 0 0 Z " fill="#0B1020" transform="translate(340,84)"/>
</svg>
